<svg xmlns="http://www.w3.org/2000/svg" width="2841" height="2107" fill="none"><path fill="url(#a)" fill-rule="evenodd" d="m2652.91 1146.99 37.2 7.54-.31 1.36-37.2-7.54-12.24 53.04 37.21 7.54-.32 1.36-37.2-7.54-12.23 53.04 37.2 7.54-.31 1.36-37.21-7.54-12.23 53.04 37.2 7.54-.31 1.37-37.2-7.55-12.23 53.05 37.2 7.54-.32 1.36-37.2-7.54-12.23 53.04 37.2 7.54-.31 1.36-37.2-7.54-12.24 53.04 37.21 7.54-.32 1.36-37.2-7.54-12.23 53.04 37.2 7.54-.32 1.36-37.2-7.54-12.23 53.04 37.2 7.54-.31 1.37-37.2-7.54-12.23 53.04 37.2 7.54-.32 1.36-37.2-7.54-12.23 53.04 37.2 7.54-.31 1.36-37.2-7.54-12.24 53.04 37.2 7.54-.31 1.36-37.2-7.54-12.23 53.04 37.2 7.54-.31 1.37-37.21-7.54-12.23 53.04 37.2 7.54-.31 1.36-37.2-7.54-12.23 53.04 37.2 7.54-.32 1.36-37.2-7.54-12.23 53.04 37.2 7.54-.31 1.36-37.2-7.54-12.24 53.04 37.2 7.54-.31 1.36-37.2-7.54-18.41 79.85-1.37-.27 18.41-79.85-56.66-11.49-18.41 79.85-1.37-.28 18.41-79.85-56.66-11.48-18.41 79.85-1.37-.28 18.41-79.85-56.66-11.48-18.41 79.85-1.37-.28 18.42-79.85-56.66-11.48-18.42 79.85-1.37-.28 18.42-79.85-56.66-11.49-18.42 79.85-1.37-.27 18.42-79.85-56.66-11.49-18.42 79.85-1.37-.27 18.42-79.85-56.66-11.49-18.42 79.85-1.36-.28 18.41-79.85-56.66-11.48-18.41 79.85-1.37-.28 18.41-79.85-56.66-11.48-18.41 79.85-1.37-.28 18.41-79.85-56.66-11.48-18.41 79.85-1.37-.28 18.41-79.85-56.66-11.49-18.41 79.85-1.37-.27 18.41-79.85-56.65-11.49-18.42 79.85-1.37-.28 18.42-79.85-56.66-11.48-18.42 79.85-1.37-.28 18.42-79.85-56.66-11.48-18.42 79.85-1.37-.28 18.42-79.85-56.66-11.48-18.42 79.85-1.36-.28 18.41-79.85-56.66-11.49-18.41 79.85-1.37-.27 18.41-79.85-56.66-11.49-18.41 79.85-1.37-.28 18.41-79.84-56.66-11.49-18.41 79.85-1.37-.28 18.41-79.85-56.66-11.48-18.41 79.85-1.37-.28 18.41-79.85-56.66-11.48-18.41 79.85-1.37-.28 18.41-79.85-56.66-11.49-18.41 79.85-1.37-.27 18.41-79.85-56.65-11.49-18.42 79.85-1.37-.28 18.42-79.84-56.66-11.49-18.42 79.85-1.37-.28 18.42-79.85-56.66-11.48-18.42 79.85-1.37-.28 18.42-79.85-56.66-11.48-18.416 79.85-1.369-.28 18.414-79.85-56.66-11.48-18.414 79.85-1.37-.28 18.415-79.85-56.659-11.49-18.415 79.85-1.369-.27 18.414-79.85-56.66-11.49-18.414 79.85-1.369-.28 18.414-79.85-56.659-11.48-18.415 79.85-1.369-.28 18.415-79.85-56.661-11.48-18.414 79.85-1.37-.28 18.415-79.85-56.659-11.48-18.415 79.85-1.369-.28 18.414-79.85-56.66-11.49-18.414 79.85-1.37-.27 18.415-79.85-56.66-11.49-18.414 79.85-1.37-.28 18.415-79.85-56.659-11.48-18.415 79.85-1.369-.28 18.414-79.85-56.66-11.48-18.415 79.85-1.369-.28 18.415-79.85-56.66-11.48-18.414 79.85-1.37-.28 18.415-79.85-56.66-11.49-18.414 79.85-1.37-.27 18.415-79.85-56.66-11.49-18.415 79.85-1.369-.28 18.415-79.84-56.66-11.49-18.414 79.85-1.37-.28 18.415-79.85-56.66-11.48-18.414 79.85-1.37-.28 18.415-79.85-56.66-11.48-18.414 79.85-1.37-.28 18.415-79.85-52.624-10.67.314-1.36 52.624 10.67 12.232-53.04-52.624-10.67.314-1.36 52.624 10.67 12.232-53.05-52.624-10.66.314-1.36 52.624 10.66 12.232-53.04-52.624-10.66.314-1.36 52.624 10.66 12.232-53.04-52.624-10.67.314-1.36 52.624 10.67 12.232-53.04-52.624-10.67.314-1.36 52.624 10.67 12.232-53.04-52.624-10.67.314-1.36 52.624 10.66 12.232-53.04-52.624-10.66.314-1.36 52.624 10.66 12.232-53.04-52.624-10.66.314-1.37 52.624 10.67 12.232-53.04-52.624-10.67.314-1.36 52.624 10.67 12.232-53.043-52.624-10.666.314-1.361 52.624 10.666 12.232-53.041-52.624-10.666.314-1.362 52.624 10.667 12.233-53.042-52.624-10.666.313-1.361 52.624 10.666 12.232-53.04-52.624-10.667.314-1.361 52.624 10.666 12.233-53.041-52.624-10.666.314-1.362 52.624 10.667 12.232-53.041-52.625-10.666.314-1.362 52.625 10.667 12.232-53.042-52.624-10.666.314-1.361 52.624 10.666 12.232-53.04-52.625-10.667.314-1.361 52.625 10.666 12.232-53.041-52.625-10.666.314-1.362 52.625 10.667 12.232-53.041-52.625-10.666.314-1.361 52.625 10.666 12.232-53.042-52.624-10.666.314-1.361 52.624 10.666 12.232-53.04-52.625-10.667.314-1.361 52.625 10.666 12.232-53.041-52.625-10.666.314-1.362 52.625 10.667 12.232-53.041-52.625-10.666.314-1.362 52.625 10.667 12.232-53.041-52.624-10.667.314-1.361 52.624 10.666 12.232-53.04-52.624-10.666.314-1.362 52.624 10.667 12.232-53.042-52.624-10.666.314-1.362 52.624 10.667 12.232-53.04-52.625-10.667.314-1.361 52.625 10.666 12.772-55.383 1.369.278-12.772 55.383 56.66 11.484 12.772-55.383 1.369.278-12.772 55.383 56.66 11.484 12.772-55.383 1.369.277-12.772 55.383 56.659 11.485 12.773-55.384 1.369.278-12.772 55.383 56.66 11.485 12.772-55.383 1.369.277-12.772 55.383 56.66 11.485 12.772-55.383 1.369.277-12.772 55.383 56.66 11.484 12.772-55.382 1.369.277-12.772 55.383 56.66 11.484 12.772-55.383 1.37.278-12.773 55.383 56.66 11.484 12.772-55.382 1.369.277-12.772 55.383 56.66 11.484 12.772-55.383 1.369.278-12.772 55.383 56.66 11.484 12.768-55.383 1.37.278-12.769 55.383 56.659 11.484 12.77-55.383 1.37.278-12.77 55.382 56.66 11.485 12.77-55.383 1.37.278-12.77 55.382 56.66 11.485 12.77-55.384 1.37.278-12.77 55.383 56.66 11.485 12.77-55.383 1.37.277-12.77 55.383 56.66 11.484 12.77-55.382 1.37.277-12.77 55.383 56.66 11.484 12.77-55.382 1.37.277-12.77 55.383L1396.86 266l12.77-55.382 1.37.277-12.78 55.383 56.66 11.484 12.78-55.383 1.37.278-12.78 55.383 56.66 11.484 12.78-55.383 1.37.278-12.78 55.383 56.66 11.484 12.77-55.383 1.37.277-12.77 55.383 56.66 11.485 12.77-55.383 1.37.277-12.77 55.383L1687 324.81l12.77-55.383 1.37.278-12.77 55.382 56.66 11.485 12.77-55.383 1.37.278-12.77 55.382 56.66 11.485 12.77-55.383 1.37.277-12.77 55.383 56.66 11.484 12.77-55.383 1.37.278-12.77 55.383 56.66 11.484 12.77-55.383 1.37.278-12.77 55.383 56.66 11.484 12.77-55.383 1.37.278-12.77 55.383 56.65 11.484 12.78-55.383 1.37.278-12.78 55.383 56.66 11.484 12.77-55.383 1.37.278-12.77 55.382 56.66 11.485 12.77-55.384 1.37.278-12.77 55.383 56.66 11.485 12.77-55.384 1.37.278-12.77 55.383 56.66 11.484 12.77-55.382 1.37.277-12.77 55.383 56.66 11.484 12.77-55.382 1.37.277-12.77 55.383 56.66 11.484 12.77-55.383 1.37.277-12.77 55.384 56.66 11.484 12.77-55.383 1.37.278-12.78 55.382 56.66 11.485 12.78-55.383 1.37.277-12.78 55.383 56.66 11.485 12.77-55.384 1.37.278-12.77 55.383L2615.46 513l12.77-55.383 1.37.277-12.77 55.383 56.66 11.484 12.77-55.383 1.37.278-12.77 55.383 56.66 11.484 12.77-55.382 1.37.277-12.77 55.383 56.66 11.484 12.77-55.383 1.37.278-12.77 55.383 37.2 7.54-.32 1.361-37.2-7.54-12.23 53.04 37.2 7.54-.31 1.362-37.2-7.541-12.23 53.042 37.2 7.54-.32 1.362-37.2-7.54-12.23 53.04 37.2 7.54-.31 1.361-37.2-7.54-12.24 53.041 37.2 7.54-.31 1.362-37.2-7.54-12.23 53.04 37.2 7.54-.32 1.362-37.2-7.54-12.23 53.041 37.2 7.54-.31 1.361-37.2-7.54-12.23 53.04 37.2 7.54-.32 1.362-37.2-7.54-12.23 53.041 37.2 7.541-.31 1.361-37.21-7.54-12.23 53.038 37.2 7.54-.31 1.36-37.2-7.54-12.23 53.04 37.2 7.54-.32 1.37-37.2-7.54-12.23 53.04zm-1.37-.28 12.23-53.04-56.66-11.49-12.23 53.04 56.66 11.49zm-58.03-11.76 12.24-53.04-56.66-11.49-12.24 53.04 56.66 11.49zm-56.97-10.13 56.66 11.49-12.23 53.04-56.66-11.48 12.23-53.05zm-1.06-1.63 12.24-53.05-56.66-11.48-12.23 53.04 56.65 11.49zm-56.97-10.13 56.66 11.49-12.23 53.04-56.66-11.49 12.23-53.04zm-1.05-1.64 12.23-53.04-56.66-11.48-12.23 53.04 56.66 11.48zm-56.98-10.12 56.66 11.48-12.23 53.05-56.66-11.49 12.23-53.04zm-1.05-1.64 12.23-53.04-56.66-11.48-12.23 53.04 56.66 11.48zm-56.98-10.12 56.66 11.48-12.23 53.04-56.66-11.48 12.23-53.04zm-1.05-1.64 12.23-53.04-56.66-11.48-12.23 53.04 56.66 11.48zm-56.98-10.12 56.66 11.48-12.23 53.04-56.66-11.48 12.23-53.04zm-1.05-1.64 12.23-53.04-56.66-11.49-12.23 53.04 56.66 11.49zm-56.97-10.13 56.66 11.49-12.24 53.04-56.66-11.48 12.24-53.05zm-1.06-1.63 12.23-53.04-56.66-11.489-12.23 53.039 56.66 11.49zm-56.97-10.13 56.66 11.49-12.24 53.04-56.66-11.49 12.24-53.04zm-1.06-1.64 12.23-53.036-56.66-11.484-12.23 53.04 56.66 11.48zm-56.97-10.12 56.66 11.49-12.23 53.04-56.66-11.49 12.23-53.04zm-1.06-1.64 12.23-53.038-56.65-11.484-12.24 53.042 56.66 11.48zm-56.97-10.12 56.66 11.48-12.23 53.04-56.66-11.48 12.23-53.04zm-1.06-1.64 12.24-53.04-56.66-11.484-12.24 53.044 56.66 11.48zm-56.97-10.12 56.66 11.48-12.23 53.04-56.66-11.48 12.23-53.04zm-1.05-1.64 12.23-53.042-56.66-11.484-12.23 53.036 56.66 11.49zm-56.98-10.12 56.66 11.48-12.23 53.04-56.66-11.48 12.23-53.04zm-1.05-1.64 12.23-53.044-56.66-11.484-12.23 53.04 56.66 11.488zm-56.98-10.126 56.66 11.486-12.23 53.04-56.66-11.48 12.23-53.046zm-1.05-1.639 12.23-53.04-56.66-11.485-12.23 53.041 56.66 11.484zm-56.98-10.123 56.66 11.484-12.23 53.044-56.66-11.49 12.23-53.038zm-1.05-1.639 12.23-53.04-56.66-11.485-12.23 53.041 56.66 11.484zm-56.97-10.123 56.66 11.485-12.24 53.045-56.66-11.49 12.24-53.04zm-1.06-1.639 12.23-53.04-56.66-11.484-12.23 53.04 56.66 11.484zm-56.97-10.123 56.66 11.485-12.24 53.037-56.66-11.48 12.24-53.042zm-1.06-1.639 12.23-53.04-56.66-11.484-12.23 53.04 56.66 11.484zm-56.97-10.123 56.66 11.485-12.23 53.039-56.66-11.48 12.23-53.044zm-1.06-1.639 12.23-53.04-56.66-11.484-12.23 53.04 56.66 11.484zm-56.97-10.123 56.66 11.485-12.23 53.041-56.66-11.484 12.23-53.042zm-1.06-1.638 12.23-53.041-56.65-11.484-12.24 53.04 56.66 11.485zm-56.97-10.123 56.66 11.484-12.23 53.041-56.66-11.484 12.23-53.041zm-1.06-1.639 12.24-53.041-56.66-11.484-12.24 53.04 56.66 11.485zm-56.97-10.123 56.66 11.484-12.23 53.041-56.66-11.484 12.23-53.041zm-1.05-1.639 12.23-53.041-56.66-11.484-12.24 53.04 56.67 11.485zm-56.98-10.123 56.66 11.484-12.23 53.041-56.66-11.484 12.23-53.041zm-1.05-1.639 12.23-53.041-56.66-11.484-12.23 53.041 56.66 11.484zm-56.98-10.123 56.66 11.484-12.23 53.041-56.66-11.484 12.23-53.041zm-1.05-1.639 12.23-53.04-56.66-11.485-12.23 53.041 56.66 11.484zm-56.98-10.123 56.66 11.484-12.23 53.042-56.66-11.485 12.23-53.041zm-1.05-1.639 12.23-53.04-56.66-11.485-12.23 53.041 56.66 11.484zm-56.98-10.123 56.66 11.485-12.23 53.041-56.66-11.485 12.23-53.041zm-1.05-1.639 12.23-53.04-56.66-11.484-12.23 53.04 56.66 11.484zm-56.97-10.123 56.65 11.485-12.23 53.041-56.66-11.485 12.24-53.041zm-1.06-1.639 12.23-53.04-56.66-11.484-12.23 53.04 56.66 11.484zm-56.97-10.123 56.66 11.485-12.24 53.041-56.66-11.484 12.24-53.042zm-1.06-1.639 12.23-53.04-56.66-11.484-12.23 53.04 56.66 11.484zm-56.97-10.123 56.66 11.485-12.24 53.041-56.65-11.484 12.23-53.042zm-1.06-1.638 12.23-53.041-56.66-11.484-12.23 53.04 56.66 11.485zm-56.97-10.123 56.66 11.484-12.23 53.041-56.66-11.484 12.23-53.041zm-1.06-1.639 12.23-53.041-56.654-11.484-12.232 53.04 56.656 11.485zm-56.97-10.123 56.66 11.484-12.23 53.041-56.663-11.484 12.233-53.041zm-1.056-1.639 12.232-53.041-56.66-11.484-12.232 53.04 56.66 11.485zm-56.974-10.123 56.66 11.484-12.232 53.041-56.66-11.484 12.232-53.041zm-1.055-1.639 12.231-53.041-56.659-11.484-12.232 53.04 56.66 11.485zm-56.974-10.123 56.66 11.484-12.233 53.041-56.659-11.484 12.232-53.041zm-1.055-1.639 12.232-53.04-56.66-11.485-12.232 53.041 56.66 11.484zm-56.974-10.123 56.66 11.484-12.232 53.042-56.66-11.485 12.232-53.041zm-1.055-1.639 12.232-53.04-56.66-11.485-12.232 53.041 56.66 11.484zm-56.974-10.123 56.66 11.484-12.232 53.042-56.66-11.485 12.232-53.041zm-1.055-1.639 12.232-53.04-56.66-11.485-12.232 53.041 56.66 11.484zm-56.974-10.123 56.66 11.484-12.233 53.042-56.659-11.485 12.232-53.041zm-1.055-1.639 12.232-53.04-56.66-11.485-12.232 53.041 56.66 11.484zm-56.974-10.123 56.66 11.485-12.232 53.041-56.66-11.485 12.232-53.041zm-1.056-1.639 12.232-53.04-56.659-11.484-12.232 53.04 56.659 11.484zm-56.973-10.123 56.659 11.485-12.232 53.041-56.659-11.484 12.232-53.042zm-1.055-1.639 12.232-53.04-56.66-11.484-12.232 53.04 56.66 11.484zm-56.974-10.123 56.66 11.485-12.232 53.041-56.66-11.484 12.232-53.042zm-1.056-1.639 12.232-53.04-56.659-11.484-12.232 53.04 56.659 11.484zm-56.973-10.122 56.659 11.484-12.232 53.041-56.659-11.484 12.232-53.041zm-1.056-1.639 12.232-53.041-56.659-11.484-12.232 53.04 56.659 11.485zm-56.973-10.123 56.659 11.484-12.232 53.041-56.659-11.484 12.232-53.041zm-1.055-1.639 12.232-53.041-56.66-11.484-12.232 53.04 56.66 11.485zm-56.974-10.123 56.66 11.484-12.232 53.041-56.66-11.484 12.232-53.041zm-1.055-1.639 12.231-53.04-56.659-11.485-12.232 53.041 56.66 11.484zm-56.974-10.123 56.66 11.484-12.233 53.041-56.659-11.484 12.232-53.041zm-12.546 54.403-12.232 53.04 56.659 11.484 12.232-53.04-56.659-11.484zm58.029 11.761-12.232 53.041 56.66 11.484 12.232-53.04-56.66-11.485zm58.029 11.762-12.232 53.041 56.659 11.484 12.232-53.04-56.659-11.485zm58.029 11.762L422.72 808.84l56.659 11.484 12.232-53.04-56.659-11.485zm58.029 11.762-12.232 53.041 56.66 11.484 12.232-53.041-56.66-11.484zm58.029 11.762-12.232 53.04 56.659 11.485 12.232-53.041-56.659-11.484zm58.029 11.762-12.232 53.04 56.66 11.485 12.232-53.041-56.66-11.484zm58.029 11.762-12.232 53.04 56.66 11.485 12.232-53.041-56.66-11.484zm58.029 11.762-12.232 53.04 56.66 11.484 12.232-53.04-56.66-11.484zm58.029 11.762-12.232 53.04 56.66 11.484 12.232-53.04-56.66-11.484zm58.029 11.762-12.232 53.04 56.659 11.484 12.232-53.04-56.659-11.484zm58.029 11.761-12.232 53.041 56.66 11.484 12.232-53.04-56.66-11.485zm58.029 11.762-12.231 53.041 56.658 11.484 12.23-53.04-56.657-11.485zm58.027 11.762-12.23 53.041 56.66 11.484 12.23-53.04-56.66-11.485zm58.03 11.762-12.23 53.041 56.66 11.484 12.23-53.041-56.66-11.484zm58.03 11.762-12.23 53.04 56.66 11.485 12.23-53.041-56.66-11.484zm58.03 11.762-12.23 53.04 56.66 11.485 12.23-53.041-56.66-11.484zm58.03 11.762-12.23 53.04 56.66 11.485 12.23-53.041-56.66-11.484zm58.03 11.762-12.23 53.04 56.66 11.485 12.23-53.041-56.66-11.484zm58.03 11.762-12.24 53.04 56.66 11.48 12.24-53.036-56.66-11.484zm58.02 11.761-12.23 53.039 56.66 11.49 12.23-53.044-56.66-11.485zm58.03 11.762-12.23 53.037 56.66 11.49 12.23-53.042-56.66-11.485zm58.03 11.762-12.23 53.045 56.66 11.48 12.23-53.04-56.66-11.485zm58.03 11.762-12.23 53.043 56.66 11.48 12.23-53.04-56.66-11.483zm58.03 11.763-12.23 53.04 56.66 11.48 12.23-53.04-56.66-11.48zm58.03 11.76-12.23 53.04 56.66 11.49 12.23-53.04-56.66-11.49zm58.03 11.76-12.23 53.04 56.66 11.49 12.23-53.04-56.66-11.49zm58.03 11.76-12.23 53.05 56.66 11.48 12.23-53.04-56.66-11.49zm58.03 11.77-12.23 53.04 56.65 11.48 12.24-53.04-56.66-11.48zm58.03 11.76-12.24 53.04 56.66 11.48 12.24-53.04-56.66-11.48zm58.02 11.76-12.23 53.04 56.66 11.48 12.23-53.04-56.66-11.48zm58.03 11.76-12.23 53.04 56.66 11.49 12.23-53.04-56.66-11.49zm58.03 11.76-12.23 53.04 56.66 11.49 12.23-53.04-56.66-11.49zm58.03 11.77-12.23 53.04 56.66 11.48 12.23-53.04-56.66-11.48zm58.03 11.76-12.23 53.04 56.66 11.48 12.23-53.04-56.66-11.48zm58.03 11.76-12.23 53.04 56.66 11.48 12.23-53.04-56.66-11.48zm58.03 11.76-12.23 53.04 56.65 11.49 12.24-53.04-56.66-11.49zm58.03 11.76-12.24 53.04 56.66 11.49 12.24-53.04-56.66-11.49zm58.02 11.77-12.23 53.04 56.66 11.48 12.23-53.04-56.66-11.48zm58.03 11.76-12.23 53.04 56.66 11.48 12.23-53.04-56.66-11.48zm58.03 11.76-12.23 53.04 56.66 11.48 12.23-53.04-56.66-11.48zm56.98 10.12 12.23-53.04-56.66-11.48-12.23 53.04 56.66 11.48zm-12.86 55.76-56.66-11.48-12.24 53.04 56.66 11.49 12.24-53.05zm-12.55 54.41-56.66-11.49-12.23 53.04 56.66 11.49 12.23-53.04zm-12.55 54.4-56.66-11.49-12.23 53.05 56.66 11.48 12.23-53.04zm-12.54 54.4-56.66-11.48-12.23 53.04 56.66 11.48 12.23-53.04zm-12.55 54.4-56.66-11.48-12.23 53.04 56.66 11.49 12.23-53.05zm-12.54 54.41-56.66-11.49-12.24 53.04 56.66 11.49 12.24-53.04zm-12.55 54.4-56.66-11.49-12.23 53.05 56.66 11.48 12.23-53.04zm-12.55 54.4-56.66-11.48-12.23 53.04 56.66 11.48 12.23-53.04zm-12.54 54.4-56.66-11.48-12.23 53.04 56.66 11.48 12.23-53.04zm-12.55 54.41-56.66-11.49-12.23 53.04 56.66 11.49 12.23-53.04zm-12.54 54.4-56.66-11.49-12.24 53.04 56.66 11.49 12.24-53.04zm-12.55 54.4-56.66-11.48-12.23 53.04 56.66 11.48 12.23-53.04zm-12.55 54.4-56.66-11.48-12.23 53.04 56.66 11.48 12.23-53.04zm-12.54 54.4-56.66-11.48-12.23 53.04 56.66 11.49 12.23-53.05zm-70.26 41.28 12.23-53.04-56.66-11.48-12.23 53.04 56.66 11.48zm-58.03-11.76 12.23-53.04-56.66-11.48-12.23 53.04 56.66 11.48zm-58.03-11.76 12.23-53.04-56.66-11.49-12.23 53.05 56.66 11.48zm-58.03-11.76 12.23-53.04-56.66-11.49-12.23 53.04 56.66 11.49zm-58.03-11.76 12.23-53.04-56.66-11.49-12.23 53.04 56.66 11.49zm-58.03-11.77 12.23-53.04-56.65-11.48-12.24 53.04 56.66 11.48zm-58.03-11.76 12.24-53.04-56.66-11.48-12.24 53.04 56.66 11.48zm-58.03-11.76 12.24-53.04-56.66-11.48-12.23 53.04 56.65 11.48zm-58.02-11.76 12.23-53.04-56.66-11.49-12.23 53.04 56.66 11.49zm-58.03-11.76 12.23-53.04-56.66-11.49-12.23 53.04 56.66 11.49zm-58.03-11.77 12.23-53.04-56.66-11.48-12.23 53.04 56.66 11.48zm-58.03-11.76 12.23-53.04-56.66-11.48-12.23 53.04 56.66 11.48zm-58.03-11.76 12.23-53.04-56.66-11.48-12.23 53.04 56.66 11.48zm-58.03-11.76 12.23-53.04-56.65-11.49-12.24 53.05 56.66 11.48zm-58.03-11.76 12.24-53.04-56.66-11.49-12.24 53.04 56.66 11.49zm-58.03-11.76 12.24-53.04-56.66-11.49-12.24 53.04 56.66 11.49zm-58.02-11.77 12.23-53.04-56.66-11.48-12.23 53.04 56.66 11.48zm-58.03-11.76 12.23-53.04-56.66-11.48-12.23 53.04 56.66 11.48zm-58.03-11.76 12.23-53.04-56.66-11.49-12.23 53.05 56.66 11.48zm-58.03-11.76 12.23-53.04-56.66-11.49-12.23 53.04 56.66 11.49zm-58.03-11.76 12.23-53.04-56.66-11.49-12.23 53.04 56.66 11.49zm-58.03-11.77 12.23-53.04-56.66-11.48-12.23 53.04 56.66 11.48zm-58.03-11.76 12.23-53.04-56.66-11.48-12.23 53.04 56.66 11.48zm-58.03-11.76 12.23-53.04-56.66-11.48-12.23 53.04 56.66 11.48zm-58.03-11.76 12.24-53.04-56.665-11.49-12.232 53.04 56.657 11.49zm-58.026-11.76 12.232-53.04-56.659-11.49-12.232 53.04 56.659 11.49zm-58.029-11.77 12.232-53.04-56.66-11.48-12.232 53.04 56.66 11.48zm-58.029-11.76 12.232-53.04-56.659-11.48-12.232 53.04 56.659 11.48zm-58.028-11.76 12.232-53.04-56.661-11.48-12.232 53.04 56.661 11.48zm-58.03-11.76 12.232-53.04-56.659-11.49-12.232 53.04 56.659 11.49zm-58.029-11.76 12.232-53.04-56.66-11.49-12.232 53.04 56.66 11.49zm-58.029-11.76 12.232-53.05-56.66-11.48-12.232 53.04 56.66 11.49zM535.851 1629l12.232-53.04-56.659-11.48-12.233 53.04 56.66 11.48zm-58.029-11.76 12.232-53.04-56.66-11.48-12.232 53.04 56.66 11.48zm-58.029-11.76 12.232-53.04-56.66-11.49-12.232 53.05 56.66 11.48zm-58.029-11.76 12.232-53.04-56.66-11.49-12.232 53.04 56.66 11.49zm-58.029-11.76 12.232-53.04-56.66-11.49-12.232 53.04 56.66 11.49zm-58.03-11.77 12.233-53.04-56.66-11.48-12.232 53.04 56.659 11.48zm-58.028-11.76 12.232-53.04-56.66-11.48-12.232 53.04 56.66 11.48zm-58.029-11.76 12.232-53.04-56.66-11.48-12.232 53.04 56.66 11.48zm-44.114-65.89 56.66 11.49 12.232-53.04-56.66-11.49-12.232 53.04zm12.547-54.4 56.659 11.49 12.232-53.04-56.66-11.49-12.231 53.04zm12.545-54.4 56.66 11.48 12.232-53.04-56.659-11.48-12.233 53.04zm12.547-54.4 56.659 11.48 12.232-53.04-56.659-11.48-12.232 53.04zm12.546-54.41 56.659 11.49 12.232-53.04-56.659-11.49-12.232 53.04zm12.546-54.4 56.659 11.49 12.232-53.04-56.659-11.49-12.232 53.04zm12.546-54.4 56.659 11.48 12.232-53.04-56.659-11.48-12.232 53.04zm12.546-54.4 56.659 11.48 12.232-53.04-56.659-11.48-12.232 53.04zm12.546-54.4 56.659 11.48 12.232-53.04-56.659-11.485-12.232 53.045zm12.546-54.407 56.659 11.487 12.232-53.043-56.659-11.484-12.232 53.04zm12.546-54.402 56.659 11.485 12.232-53.042-56.659-11.484-12.232 53.041zm12.546-54.403 56.659 11.485 12.232-53.041-56.659-11.484-12.232 53.04zm12.546-54.401 56.659 11.484 12.233-53.041-56.66-11.485-12.232 53.042zm70.261-41.28-12.232 53.041 56.659 11.485 12.233-53.041-56.66-11.485zm58.029 11.762-12.232 53.041 56.659 11.485 12.232-53.042-56.659-11.484zm58.029 11.762-12.233 53.041 56.66 11.485 12.232-53.042-56.659-11.484zm58.029 11.762-12.233 53.041 56.66 11.485 12.233-53.042-56.66-11.484zm58.029 11.762-12.232 53.041 56.659 11.484 12.232-53.041-56.659-11.484zm58.029 11.762-12.233 53.041 56.66 11.484 12.233-53.041-56.66-11.484zm58.029 11.762L642.29 910.29l56.659 11.484 12.233-53.041-56.66-11.484zm58.029 11.762-12.232 53.041 56.66 11.484 12.232-53.041-56.66-11.484zm58.029 11.761-12.232 53.042 56.66 11.484 12.232-53.041-56.66-11.485zm58.029 11.762-12.232 53.042 56.659 11.484 12.232-53.041-56.659-11.485zm58.029 11.762-12.232 53.041 56.66 11.485 12.232-53.041-56.66-11.485zm58.03 11.762-12.233 53.041 56.66 11.485 12.235-53.041-56.662-11.485zm58.032 11.762-12.236 53.041 56.656 11.485 12.24-53.042-56.66-11.484zm58.03 11.762-12.24 53.041 56.66 11.487 12.23-53.044-56.65-11.484zm58.02 11.762-12.23 53.046 56.66 11.48 12.23-53.042-56.66-11.484zm58.03 11.762-12.23 53.044 56.66 11.48 12.23-53.04-56.66-11.484zm58.03 11.762-12.23 53.042 56.66 11.48 12.23-53.038-56.66-11.484zm58.03 11.762-12.23 53.04 56.66 11.49 12.23-53.046-56.66-11.484zm58.03 11.761-12.23 53.039 56.66 11.49 12.23-53.04-56.66-11.489zm58.03 11.759-12.23 53.04 56.66 11.49 12.23-53.04-56.66-11.49zm58.03 11.77-12.23 53.04 56.66 11.48 12.23-53.04-56.66-11.48zm58.03 11.76-12.23 53.04 56.65 11.48 12.24-53.04-56.66-11.48zm58.03 11.76-12.24 53.04 56.66 11.48 12.24-53.04-56.66-11.48zm58.03 11.76-12.24 53.04 56.66 11.49 12.24-53.04-56.66-11.49zm58.02 11.76-12.23 53.04 56.66 11.49 12.23-53.04-56.66-11.49zm58.03 11.76-12.23 53.05 56.66 11.48 12.23-53.04-56.66-11.49zm58.03 11.77-12.23 53.04 56.66 11.48 12.23-53.04-56.66-11.48zm58.03 11.76-12.23 53.04 56.66 11.48 12.23-53.04-56.66-11.48zm58.03 11.76-12.23 53.04 56.66 11.49 12.23-53.05-56.66-11.48zm58.03 11.76-12.23 53.04 56.66 11.49 12.23-53.04-56.66-11.49zm58.03 11.76-12.23 53.05 56.65 11.48 12.24-53.04-56.66-11.49zm58.03 11.77-12.24 53.04 56.66 11.48 12.24-53.04-56.66-11.48zm58.02 11.76-12.23 53.04 56.66 11.48 12.23-53.04-56.66-11.48zm58.03 11.76-12.23 53.04 56.66 11.49 12.23-53.05-56.66-11.48zm58.03 11.76-12.23 53.04 56.66 11.49 12.23-53.04-56.66-11.49zm58.03 11.76-12.23 53.04 56.66 11.49 12.23-53.04-56.66-11.49zm58.03 11.76-12.23 53.05 56.66 11.48 12.23-53.04-56.66-11.49zm58.03 11.77-12.23 53.04 56.66 11.48 12.23-53.04-56.66-11.48zm58.03 11.76-12.23 53.04 56.65 11.48 12.24-53.04-56.66-11.48zm44.11 65.89-56.66-11.49-12.23 53.04 56.66 11.49 12.23-53.04zm-12.54 54.4-56.66-11.49-12.24 53.04 56.66 11.49 12.24-53.04zm-12.55 54.4-56.66-11.48-12.23 53.04 56.66 11.48 12.23-53.04zm-12.55 54.4-56.66-11.48-12.23 53.04 56.66 11.48 12.23-53.04zm-12.54 54.4-56.66-11.48-12.23 53.04 56.65 11.49 12.24-53.05zm-12.55 54.41-56.66-11.49-12.23 53.04 56.66 11.49 12.23-53.04zm-12.55 54.4-56.65-11.49-12.24 53.05 56.66 11.48 12.23-53.04zm-12.54 54.4-56.66-11.48-12.23 53.04 56.66 11.48 12.23-53.04zm-12.55 54.4-56.66-11.48-12.23 53.04 56.66 11.48 12.23-53.04zm-12.54 54.41-56.66-11.49-12.23 53.04 56.65 11.49 12.24-53.04zm-12.55 54.4-56.66-11.49-12.23 53.04 56.66 11.49 12.23-53.04zm-12.55 54.4-56.65-11.48-12.24 53.04 56.66 11.48 12.23-53.04zm-70.26 41.28 12.24-53.04-56.66-11.49-12.24 53.05 56.66 11.48zm-58.02-11.76 12.23-53.04-56.66-11.49-12.23 53.04 56.66 11.49zm-58.03-11.76 12.23-53.05-56.66-11.48-12.23 53.04 56.66 11.49zm-58.03-11.77 12.23-53.04-56.66-11.48-12.23 53.04 56.66 11.48zm-58.03-11.76 12.23-53.04-56.66-11.48-12.23 53.04 56.66 11.48zm-58.03-11.76 12.23-53.04-56.66-11.49-12.23 53.05 56.66 11.48zm-58.03-11.76 12.23-53.04-56.66-11.49-12.23 53.04 56.66 11.49zm-58.03-11.76 12.23-53.04-56.66-11.49-12.23 53.04 56.66 11.49zm-58.03-11.77 12.24-53.04-56.66-11.48-12.24 53.04 56.66 11.48zm-58.03-11.76 12.24-53.04-56.66-11.48-12.23 53.04 56.65 11.48zm-58.02-11.76 12.23-53.04-56.66-11.48-12.23 53.04 56.66 11.48zm-58.03-11.76 12.23-53.04-56.66-11.49-12.23 53.04 56.66 11.49zm-58.03-11.76 12.23-53.04-56.66-11.49-12.23 53.04 56.66 11.49zm-58.03-11.76 12.23-53.05-56.66-11.48-12.23 53.04 56.66 11.49zm-58.03-11.77 12.23-53.04-56.66-11.48-12.23 53.04 56.66 11.48zm-58.03-11.76 12.23-53.04-56.66-11.48-12.23 53.04 56.66 11.48zm-58.03-11.76 12.23-53.04-56.66-11.49-12.23 53.05 56.66 11.48zm-58.03-11.76 12.24-53.04-56.66-11.49-12.24 53.04 56.66 11.49zm-58.03-11.76 12.24-53.05-56.66-11.48-12.24 53.04 56.66 11.49zm-58.03-11.77 12.24-53.04-56.66-11.48-12.23 53.04 56.65 11.48zm-58.02-11.76 12.23-53.04-56.66-11.48-12.23 53.04 56.66 11.48zm-58.03-11.76 12.23-53.04-56.66-11.49-12.23 53.05 56.66 11.48zm-58.03-11.76 12.23-53.04-56.66-11.49-12.23 53.04 56.66 11.49zm-58.03-11.76 12.23-53.04-56.658-11.49-12.233 53.04 56.661 11.49zm-58.03-11.77 12.232-53.04-56.659-11.48-12.232 53.04 56.659 11.48zm-58.029-11.76 12.232-53.04-56.659-11.48-12.233 53.04 56.66 11.48zm-58.029-11.76 12.232-53.04-56.659-11.48-12.232 53.04 56.659 11.48zm-58.028-11.76 12.232-53.04-56.661-11.49-12.232 53.04 56.661 11.49zm-58.03-11.76 12.232-53.04-56.659-11.49-12.232 53.04 56.659 11.49zm-58.029-11.77 12.232-53.04-56.659-11.48-12.233 53.04 56.66 11.48zm-58.029-11.76 12.232-53.04-56.659-11.48-12.233 53.04 56.66 11.48zm-58.029-11.76 12.232-53.04-56.659-11.48-12.233 53.04 56.66 11.48zm-58.029-11.76 12.232-53.04-56.66-11.49-12.232 53.04 56.66 11.49zm-58.029-11.76 12.232-53.04-56.66-11.49-12.232 53.04 56.66 11.49zm-58.029-11.76 12.232-53.05-56.66-11.48-12.232 53.04 56.66 11.49zm-58.029-11.77 12.232-53.04-56.66-11.48-12.232 53.04 56.66 11.48zm-58.029-11.76 12.232-53.04-56.659-11.48-12.233 53.04 56.66 11.48zm-58.029-11.76 12.232-53.04-56.66-11.49-12.232 53.05 56.66 11.48zm-44.114-65.89 56.66 11.49 12.232-53.04-56.66-11.49-12.232 53.04zm12.546-54.4 56.66 11.49 12.232-53.05-56.66-11.48-12.232 53.04zm12.546-54.4 56.66 11.48 12.232-53.04-56.66-11.48-12.232 53.04zm12.546-54.4 56.66 11.48 12.232-53.04-56.66-11.48-12.232 53.04zm12.546-54.41 56.66 11.49 12.232-53.04-56.66-11.49-12.232 53.04zm12.546-54.4 56.66 11.49 12.232-53.04-56.66-11.49-12.232 53.04zm12.546-54.4 56.66 11.48 12.232-53.04-56.66-11.48-12.232 53.04zm12.546-54.4 56.66 11.48 12.232-53.04-56.66-11.48-12.232 53.04zm12.546-54.4 56.66 11.48 12.232-53.041-56.66-11.484-12.232 53.045zm12.546-54.407 56.66 11.485 12.232-53.042-56.659-11.484-12.233 53.041zm12.547-54.403 56.659 11.485 12.232-53.041-56.659-11.484-12.232 53.04zm70.261-41.278-12.232 53.04 56.659 11.484 12.232-53.04-56.659-11.484zm58.028 11.762-12.232 53.04 56.66 11.484 12.232-53.04-56.66-11.484zm58.029 11.762-12.232 53.04 56.66 11.484 12.232-53.04-56.66-11.484zm58.03 11.761-12.232 53.041 56.659 11.484 12.232-53.04-56.659-11.485zm58.028 11.762-12.232 53.041 56.661 11.484 12.231-53.04-56.66-11.485zm58.03 11.762-12.232 53.041 56.659 11.484 12.232-53.04-56.659-11.485zm58.029 11.762-12.232 53.041 56.66 11.484 12.232-53.04-56.66-11.485zm58.029 11.762-12.232 53.04 56.66 11.485 12.232-53.041-56.66-11.484zm58.029 11.762-12.232 53.04 56.659 11.483 12.232-53.039-56.659-11.484zm58.029 11.762-12.232 53.041 56.66 11.48 12.232-53.037-56.66-11.484zm58.029 11.762-12.232 53.039 56.66 11.49 12.232-53.045-56.66-11.484zm58.029 11.762-12.232 53.037 56.662 11.49 12.23-53.043-56.66-11.484zm58.03 11.762-12.23 53.045 56.66 11.48 12.23-53.04-56.66-11.485zm58.03 11.765-12.23 53.04 56.66 11.48 12.23-53.04-56.66-11.48zm58.03 11.76-12.23 53.04 56.65 11.48 12.24-53.04-56.66-11.48zm58.03 11.76-12.24 53.04 56.66 11.49 12.24-53.05-56.66-11.48zm58.03 11.76-12.24 53.04 56.66 11.49 12.24-53.04-56.66-11.49zm58.02 11.76-12.23 53.04 56.66 11.49 12.23-53.04-56.66-11.49zm58.03 11.77-12.23 53.04 56.66 11.48 12.23-53.04-56.66-11.48zm58.03 11.76-12.23 53.04 56.66 11.48 12.23-53.04-56.66-11.48zm58.03 11.76-12.23 53.04 56.66 11.48 12.23-53.04-56.66-11.48zm58.03 11.76-12.23 53.04 56.66 11.49 12.23-53.04-56.66-11.49zm58.03 11.76-12.23 53.04 56.66 11.49 12.23-53.04-56.66-11.49zm58.03 11.77-12.23 53.04 56.66 11.48 12.23-53.04-56.66-11.48zm58.03 11.76-12.23 53.04 56.66 11.48 12.23-53.04-56.66-11.48zm58.03 11.76-12.24 53.04 56.66 11.48 12.24-53.04-56.66-11.48zm58.02 11.76-12.23 53.04 56.66 11.49 12.23-53.04-56.66-11.49zm58.03 11.76-12.23 53.04 56.66 11.49 12.23-53.04-56.66-11.49zm58.03 11.76-12.23 53.05 56.66 11.48 12.23-53.04-56.66-11.49zm58.03 11.77-12.23 53.04 56.66 11.48 12.23-53.04-56.66-11.48zm58.03 11.76-12.23 53.04 56.66 11.48 12.23-53.04-56.66-11.48zm58.03 11.76-12.23 53.04 56.66 11.48 12.23-53.04-56.66-11.48zm58.03 11.76-12.23 53.04 56.66 11.49 12.23-53.04-56.66-11.49zm58.03 11.76-12.24 53.04 56.66 11.49 12.24-53.04-56.66-11.49zm58.03 11.77-12.24 53.04 56.66 11.48 12.23-53.04-56.65-11.48zm58.02 11.76-12.23 53.04 56.66 11.48 12.23-53.04-56.66-11.48zm58.03 11.76-12.23 53.04 56.66 11.48 12.23-53.04-56.66-11.48zm44.12 65.89-56.66-11.49-12.24 53.04 56.66 11.49 12.24-53.04zm-12.55 54.4-56.66-11.49-12.23 53.04 56.66 11.49 12.23-53.04zm-12.55 54.4-56.66-11.48-12.23 53.04 56.66 11.48 12.23-53.04zm-12.54 54.4-56.66-11.48-12.23 53.04 56.66 11.48 12.23-53.04zm-12.55 54.41-56.66-11.49-12.23 53.04 56.66 11.49 12.23-53.04zm-12.54 54.4-56.66-11.49-12.24 53.04 56.66 11.49 12.24-53.04zm-12.55 54.4-56.66-11.48-12.23 53.04 56.66 11.48 12.23-53.04zm-12.55 54.4-56.66-11.48-12.23 53.04 56.66 11.48 12.23-53.04zm-12.54 54.4-56.66-11.48-12.23 53.04 56.66 11.49 12.23-53.05zm-12.55 54.41-56.66-11.49-12.23 53.04 56.66 11.49 12.23-53.04zm-70.26 41.27 12.23-53.04-56.66-11.48-12.23 53.04 56.66 11.48zm-58.03-11.76 12.23-53.04-56.66-11.48-12.23 53.04 56.66 11.48zm-58.03-11.76 12.24-53.04-56.66-11.48-12.24 53.04 56.66 11.48zm-58.03-11.76 12.24-53.04-56.66-11.49-12.23 53.04 56.65 11.49zm-58.02-11.76 12.23-53.04-56.66-11.49-12.23 53.04 56.66 11.49zm-58.03-11.76 12.23-53.04-56.66-11.49-12.23 53.04 56.66 11.49zm-58.03-11.77 12.23-53.04-56.66-11.48-12.23 53.04 56.66 11.48zm-58.03-11.76 12.23-53.04-56.66-11.48-12.23 53.04 56.66 11.48zm-58.03-11.76 12.23-53.04-56.66-11.48-12.23 53.04 56.66 11.48zm-58.03-11.76 12.23-53.04-56.66-11.49-12.23 53.04 56.66 11.49zm-58.03-11.76 12.24-53.04-56.66-11.49-12.24 53.04 56.66 11.49zm-58.02-11.77 12.23-53.04-56.66-11.48-12.23 53.04 56.66 11.48zm-58.03-11.76 12.23-53.04-56.66-11.48-12.23 53.04 56.66 11.48zm-58.03-11.76 12.23-53.04-56.66-11.48-12.23 53.04 56.66 11.48zm-58.03-11.76 12.23-53.04-56.66-11.49-12.23 53.04 56.66 11.49zm-58.03-11.76 12.23-53.04-56.66-11.49-12.23 53.04 56.66 11.49zm-58.03-11.76 12.23-53.05-56.66-11.48-12.23 53.04 56.66 11.49zm-58.03-11.77 12.23-53.04-56.66-11.48-12.23 53.04 56.66 11.48zm-58.03-11.76 12.23-53.04-56.66-11.48-12.23 53.04 56.66 11.48zm-58.03-11.76 12.23-53.04-56.66-11.49-12.23 53.04 56.66 11.49zm-58.03-11.76 12.24-53.04-56.66-11.49-12.24 53.04 56.66 11.49zm-58.03-11.76 12.24-53.04-56.66-11.49-12.24 53.04 56.66 11.49zm-58.02-11.77 12.23-53.04-56.663-11.48-12.231 53.04 56.664 11.48zm-58.034-11.76 12.232-53.04-56.659-11.48-12.232 53.04 56.659 11.48zm-58.029-11.76 12.232-53.04-56.66-11.48-12.231 53.04 56.659 11.48zm-58.029-11.76 12.232-53.04-56.659-11.49-12.232 53.04 56.659 11.49zm-58.028-11.76 12.232-53.04-56.661-11.49-12.232 53.04 56.661 11.49zm-58.03-11.77 12.232-53.04-56.659-11.48-12.232 53.04 56.659 11.48zm-58.029-11.76 12.232-53.04-56.66-11.48-12.231 53.04 56.659 11.48zm-58.029-11.76 12.232-53.04-56.66-11.48-12.232 53.04 56.66 11.48zm-58.029-11.76 12.232-53.04-56.659-11.49-12.232 53.04 56.659 11.49zm-58.029-11.76 12.232-53.04-56.66-11.49-12.232 53.04 56.66 11.49zm-58.029-11.77 12.232-53.04-56.66-11.48-12.232 53.04 56.66 11.48zm-58.029-11.76 12.232-53.04-56.66-11.48-12.232 53.04 56.66 11.48zm-58.029-11.76 12.232-53.04-56.66-11.48-12.232 53.04 56.66 11.48zm-58.029-11.76 12.232-53.04-56.66-11.49-12.231 53.04 56.659 11.49zm-44.114-65.89 56.66 11.49 12.232-53.04-56.659-11.49-12.233 53.04zm12.547-54.4 56.659 11.48 12.232-53.04-56.659-11.48-12.232 53.04zm12.546-54.4 56.659 11.48 12.232-53.04-56.659-11.48-12.232 53.04zm12.546-54.4 56.659 11.48 12.232-53.04-56.659-11.48-12.232 53.04zm12.546-54.41 56.659 11.49 12.232-53.04-56.659-11.49-12.232 53.04zm12.546-54.4 56.659 11.49 12.232-53.04-56.659-11.49-12.232 53.04zm12.546-54.4 56.659 11.48 12.232-53.04-56.659-11.48-12.232 53.04zm12.546-54.4 56.659 11.48 12.232-53.039-56.659-11.484-12.232 53.043zm12.546-54.405 56.659 11.484 12.232-53.041-56.659-11.484-12.232 53.041zm70.26-41.28-12.232 53.042 56.66 11.484 12.232-53.041-56.66-11.485zm58.03 11.762-12.233 53.042 56.66 11.484 12.232-53.041-56.659-11.485zm58.029 11.762-12.232 53.042 56.659 11.489 12.232-53.046-56.659-11.485zm58.028 11.762-12.232 53.039 56.66 11.49 12.233-53.044-56.661-11.485zm58.03 11.762-12.232 53.037 56.659 11.49 12.233-53.043-56.66-11.484zm58.029 11.762-12.232 53.045 56.659 11.48 12.233-53.041-56.66-11.484zm58.029 11.762-12.232 53.043 56.66 11.48 12.232-53.04-56.66-11.483zm58.029 11.763-12.232 53.04 56.659 11.48 12.232-53.04-56.659-11.48zm58.029 11.76-12.232 53.04 56.66 11.49 12.232-53.04-56.66-11.49zm58.03 11.76-12.233 53.04 56.659 11.49 12.233-53.04-56.659-11.49zm58.028 11.76-12.232 53.05 56.658 11.48 12.23-53.04-56.656-11.49zm58.026 11.77-12.23 53.04 56.66 11.48 12.23-53.04-56.66-11.48zm58.03 11.76-12.23 53.04 56.66 11.48 12.23-53.04-56.66-11.48zm58.03 11.76-12.23 53.04 56.66 11.49 12.23-53.05-56.66-11.48zm58.03 11.76-12.23 53.04 56.66 11.49 12.23-53.04-56.66-11.49zm58.03 11.76-12.23 53.05 56.66 11.48 12.23-53.04-56.66-11.49zm58.03 11.77-12.23 53.04 56.66 11.48 12.23-53.04-56.66-11.48zm58.03 11.76-12.24 53.04 56.66 11.48 12.24-53.04-56.66-11.48zm58.03 11.76-12.24 53.04 56.66 11.49 12.24-53.05-56.66-11.48zm58.03 11.76-12.24 53.04 56.66 11.49 12.23-53.04-56.65-11.49zm58.02 11.76-12.23 53.04 56.66 11.49 12.23-53.04-56.66-11.49zm58.03 11.77-12.23 53.04 56.66 11.48 12.23-53.04-56.66-11.48zm58.03 11.76-12.23 53.04 56.66 11.48 12.23-53.04-56.66-11.48zm58.03 11.76-12.23 53.04 56.66 11.48 12.23-53.04-56.66-11.48zm58.03 11.76-12.23 53.04 56.66 11.49 12.23-53.04-56.66-11.49zm58.03 11.76-12.23 53.04 56.66 11.49 12.23-53.04-56.66-11.49zm58.03 11.76-12.23 53.05 56.66 11.48 12.23-53.04-56.66-11.49zm58.03 11.77-12.24 53.04 56.66 11.48 12.24-53.04-56.66-11.48zm58.03 11.76-12.24 53.04 56.66 11.48 12.23-53.04-56.65-11.48zm58.02 11.76-12.23 53.04 56.66 11.49 12.23-53.05-56.66-11.48zm58.03 11.76-12.23 53.04 56.66 11.49 12.23-53.04-56.66-11.49zm58.03 11.76-12.23 53.05 56.66 11.48 12.23-53.04-56.66-11.49zm58.03 11.77-12.23 53.04 56.66 11.48 12.23-53.04-56.66-11.48zm58.03 11.76-12.23 53.04 56.66 11.48 12.23-53.04-56.66-11.48zm58.03 11.76-12.23 53.04 56.66 11.49 12.23-53.05-56.66-11.48zm44.11 65.89-56.66-11.49-12.23 53.04 56.66 11.49 12.23-53.04zm-12.54 54.4-56.66-11.49-12.24 53.05 56.66 11.48 12.24-53.04zm-12.55 54.4-56.66-11.48-12.23 53.04 56.66 11.48 12.23-53.04zm-12.55 54.4-56.66-11.48-12.23 53.04 56.66 11.48 12.23-53.04zm-12.54 54.41-56.66-11.49-12.23 53.04 56.66 11.49 12.23-53.04zm-12.55 54.4-56.66-11.49-12.23 53.04 56.66 11.49 12.23-53.04zm-12.54 54.4-56.66-11.48-12.24 53.04 56.66 11.48 12.24-53.04zm-12.55 54.4-56.66-11.48-12.23 53.04 56.66 11.48 12.23-53.04zm-70.26 41.28 12.23-53.04-56.66-11.48-12.23 53.04 56.66 11.48zm-58.03-11.76 12.23-53.04-56.66-11.49-12.23 53.05 56.66 11.48zm-58.03-11.76 12.23-53.04-56.66-11.49-12.23 53.04 56.66 11.49zm-58.03-11.76 12.23-53.05-56.66-11.48-12.23 53.04 56.66 11.49zm-58.03-11.77 12.24-53.04-56.66-11.48-12.24 53.04 56.66 11.48zm-58.03-11.76 12.24-53.04-56.66-11.48-12.24 53.04 56.66 11.48zm-58.02-11.76 12.23-53.04-56.66-11.49-12.23 53.05 56.66 11.48zm-58.03-11.76 12.23-53.04-56.66-11.49-12.23 53.04 56.66 11.49zm-58.03-11.76 12.23-53.04-56.66-11.49-12.23 53.04 56.66 11.49zm-58.03-11.77 12.23-53.04-56.66-11.48-12.23 53.04 56.66 11.48zm-58.03-11.76 12.23-53.04-56.66-11.48-12.23 53.04 56.66 11.48zm-58.03-11.76 12.23-53.04-56.66-11.48-12.23 53.04 56.66 11.48zm-58.03-11.76 12.23-53.04-56.66-11.49-12.23 53.04 56.66 11.49zm-58.03-11.76 12.24-53.04-56.66-11.49-12.24 53.04 56.66 11.49zm-58.03-11.76 12.24-53.05-56.66-11.48-12.24 53.04 56.66 11.49zm-58.02-11.77 12.23-53.04-56.66-11.48-12.23 53.04 56.66 11.48zm-58.03-11.76 12.23-53.04-56.66-11.48-12.23 53.04 56.66 11.48zm-58.03-11.76 12.23-53.04-56.66-11.49-12.23 53.05 56.66 11.48zm-58.03-11.76 12.23-53.04-56.66-11.49-12.23 53.04 56.66 11.49zm-58.03-11.76 12.23-53.05-56.66-11.48-12.23 53.04 56.66 11.49zm-58.03-11.77 12.23-53.04-56.66-11.48-12.23 53.04 56.66 11.48zm-58.03-11.76 12.23-53.04-56.656-11.48-12.233 53.04 56.659 11.48zm-58.028-11.76 12.232-53.04-56.659-11.49-12.232 53.05 56.659 11.48zm-58.029-11.76 12.232-53.04-56.659-11.49-12.233 53.04 56.66 11.49zm-58.029-11.76 12.232-53.04-56.659-11.49-12.232 53.04 56.659 11.49zm-58.028-11.77 12.232-53.04-56.661-11.48-12.232 53.04 56.661 11.48zm-58.03-11.76 12.232-53.04-56.659-11.48-12.232 53.04 56.659 11.48zm-58.029-11.76 12.232-53.04-56.659-11.48-12.233 53.04 56.66 11.48zm-58.029-11.76 12.232-53.04-56.66-11.49-12.232 53.04 56.66 11.49zm-58.029-11.76 12.232-53.04-56.659-11.49-12.232 53.04 56.659 11.49zm-58.029-11.76 12.232-53.05-56.66-11.48-12.232 53.04 56.66 11.49zm-58.029-11.77 12.232-53.04-56.66-11.48-12.232 53.04 56.66 11.48zm-58.029-11.76 12.232-53.04-56.66-11.48-12.232 53.04 56.66 11.48zm-58.029-11.76 12.232-53.04-56.66-11.49-12.232 53.04 56.66 11.49zm-44.114-65.89 56.66 11.49 12.232-53.04-56.66-11.49-12.232 53.04zm12.546-54.4 56.66 11.48 12.232-53.04-56.66-11.48-12.232 53.04zm12.546-54.4 56.66 11.48 12.232-53.04-56.66-11.48-12.232 53.04zm12.546-54.4 56.66 11.48 12.232-53.04-56.66-11.49-12.232 53.05zm12.546-54.41 56.66 11.49 12.232-53.04-56.66-11.49-12.232 53.04zm12.546-54.4 56.66 11.49 12.232-53.05-56.66-11.48-12.232 53.04zm12.546-54.4 56.66 11.48 12.232-53.037-56.66-11.485-12.232 53.042zm70.261-41.28-12.232 53.04 56.66 11.49 12.232-53.045-56.66-11.485zm58.03 11.762-12.232 53.038 56.659 11.49 12.232-53.04-56.659-11.488zm58.028 11.758-12.232 53.04 56.66 11.49 12.232-53.04-56.66-11.49zm58.03 11.77-12.232 53.04 56.659 11.48 12.232-53.04-56.659-11.48zm58.029 11.76-12.232 53.04 56.659 11.48 12.232-53.04-56.659-11.48zm58.029 11.76-12.232 53.04 56.66 11.48 12.232-53.04-56.66-11.48zm58.029 11.76-12.232 53.04 56.659 11.49 12.232-53.04-56.659-11.49zM849 1067.5l-12.232 53.04 56.66 11.49 12.232-53.04L849 1067.5zm58.029 11.77-12.232 53.04 56.659 11.48 12.232-53.04-56.659-11.48zm58.029 11.76-12.232 53.04 56.664 11.48 12.23-53.04-56.662-11.48zm58.032 11.76-12.23 53.04 56.65 11.48 12.24-53.04-56.66-11.48zm58.03 11.76-12.24 53.04 56.66 11.49 12.24-53.04-56.66-11.49zm58.02 11.76-12.23 53.04 56.66 11.49 12.23-53.04-56.66-11.49zm58.03 11.76-12.23 53.05 56.66 11.48 12.23-53.04-56.66-11.49zm58.03 11.77-12.23 53.04 56.66 11.48 12.23-53.04-56.66-11.48zm58.03 11.76-12.23 53.04 56.66 11.48 12.23-53.04-56.66-11.48zm58.03 11.76-12.23 53.04 56.66 11.49 12.23-53.05-56.66-11.48zm58.03 11.76-12.23 53.04 56.66 11.49 12.23-53.04-56.66-11.49zm58.03 11.76-12.23 53.05 56.66 11.48 12.23-53.04-56.66-11.49zm58.03 11.77-12.23 53.04 56.66 11.48 12.23-53.04-56.66-11.48zm58.03 11.76-12.23 53.04 56.65 11.48 12.24-53.04-56.66-11.48zm58.03 11.76-12.24 53.04 56.66 11.49 12.24-53.05-56.66-11.48zm58.03 11.76-12.24 53.04 56.66 11.49 12.24-53.04-56.66-11.49zm58.02 11.76-12.23 53.04 56.66 11.49 12.23-53.04-56.66-11.49zm58.03 11.77-12.23 53.04 56.66 11.48 12.23-53.04-56.66-11.48zm58.03 11.76-12.23 53.04 56.66 11.48 12.23-53.04-56.66-11.48zm58.03 11.76-12.23 53.04 56.66 11.48 12.23-53.04-56.66-11.48zm58.03 11.76-12.23 53.04 56.66 11.49 12.23-53.04-56.66-11.49zm58.03 11.76-12.23 53.04 56.66 11.49 12.23-53.04-56.66-11.49zm58.03 11.76-12.24 53.05 56.66 11.48 12.24-53.04-56.66-11.49zm58.03 11.77-12.24 53.04 56.66 11.48 12.24-53.04-56.66-11.48zm58.02 11.76-12.23 53.04 56.66 11.48 12.23-53.04-56.66-11.48zm58.03 11.76-12.23 53.04 56.66 11.49 12.23-53.05-56.66-11.48zm44.12 65.89-56.66-11.49-12.24 53.04 56.66 11.49 12.24-53.04zm-12.55 54.4-56.66-11.49-12.23 53.05 56.66 11.48 12.23-53.04zm-12.55 54.4-56.66-11.48-12.23 53.04 56.66 11.48 12.23-53.04zm-12.54 54.4-56.66-11.48-12.23 53.04 56.66 11.48 12.23-53.04zm-12.55 54.41-56.66-11.49-12.23 53.04 56.66 11.49 12.23-53.04zm-12.54 54.4-56.66-11.49-12.24 53.04 56.66 11.49 12.24-53.04zm-70.26 41.28 12.23-53.04-56.66-11.49-12.23 53.04 56.66 11.49zm-58.03-11.76 12.23-53.05-56.66-11.48-12.23 53.04 56.66 11.49zm-58.03-11.77 12.23-53.04-56.66-11.48-12.23 53.04 56.66 11.48zm-58.03-11.76 12.23-53.04-56.66-11.48-12.23 53.04 56.66 11.48zm-58.03-11.76 12.23-53.04-56.66-11.49-12.23 53.05 56.66 11.48zm-58.03-11.76 12.23-53.04-56.66-11.49-12.23 53.04 56.66 11.49zm-58.03-11.76 12.24-53.04-56.66-11.49-12.24 53.04 56.66 11.49zm-58.03-11.77 12.24-53.04-56.66-11.48-12.24 53.04 56.66 11.48zm-58.02-11.76 12.23-53.04-56.66-11.48-12.23 53.04 56.66 11.48zm-58.03-11.76 12.23-53.04-56.66-11.48-12.23 53.04 56.66 11.48zm-58.03-11.76 12.23-53.04-56.66-11.49-12.23 53.04 56.66 11.49zm-58.03-11.76 12.23-53.04-56.66-11.49-12.23 53.04 56.66 11.49zm-58.03-11.77 12.23-53.04-56.66-11.48-12.23 53.04 56.66 11.48zm-58.03-11.76 12.23-53.04-56.66-11.48-12.23 53.04 56.66 11.48zm-58.03-11.76 12.23-53.04-56.66-11.48-12.23 53.04 56.66 11.48zm-58.03-11.76 12.23-53.04-56.66-11.49-12.23 53.04 56.66 11.49zm-58.03-11.76 12.23-53.04-56.65-11.49-12.24 53.04 56.66 11.49zm-58.03-11.76 12.24-53.05-56.66-11.48-12.24 53.04 56.66 11.49zm-58.02-11.77 12.23-53.04-56.66-11.48-12.23 53.04 56.66 11.48zm-58.03-11.76 12.23-53.04-56.66-11.48-12.23 53.04 56.66 11.48zm-58.03-11.76 12.23-53.04-56.66-11.49-12.232 53.05 56.662 11.48zm-58.032-11.76 12.232-53.04-56.659-11.49-12.232 53.04 56.659 11.49zm-58.029-11.76 12.232-53.05-56.659-11.48-12.232 53.04 56.659 11.49zm-58.029-11.77 12.232-53.04-56.659-11.48-12.232 53.04 56.659 11.48zm-58.028-11.76 12.232-53.04-56.661-11.48-12.232 53.04 56.661 11.48zm-58.03-11.76 12.232-53.04-56.659-11.49-12.232 53.05 56.659 11.48zm-58.029-11.76 12.232-53.04-56.659-11.49-12.232 53.04 56.659 11.49zm-58.029-11.76 12.232-53.04-56.659-11.49-12.233 53.04 56.66 11.49zm-58.029-11.77 12.232-53.04-56.659-11.48-12.232 53.04 56.659 11.48zm-58.029-11.76 12.232-53.04-56.66-11.48-12.232 53.04 56.66 11.48zm-58.029-11.76 12.232-53.04-56.66-11.48-12.232 53.04 56.66 11.48zm-58.029-11.76 12.232-53.04-56.66-11.49-12.232 53.04 56.66 11.49zm-44.114-65.89 56.66 11.49 12.232-53.04-56.66-11.49-12.232 53.04zm12.546-54.4 56.66 11.48 12.232-53.04-56.66-11.48-12.232 53.04zm12.546-54.4 56.66 11.48 12.232-53.04-56.66-11.48-12.232 53.04zm12.546-54.4 56.66 11.48 12.232-53.04-56.66-11.49-12.232 53.05zm12.546-54.41 56.66 11.49 12.232-53.04-56.66-11.49-12.232 53.04zm70.262-41.28-12.233 53.05 56.66 11.48 12.232-53.04-56.659-11.49zm58.028 11.77-12.232 53.04 56.66 11.48 12.232-53.04-56.66-11.48zm58.03 11.76-12.232 53.04 56.659 11.48 12.232-53.04-56.659-11.48zm58.029 11.76-12.232 53.04 56.659 11.49 12.232-53.05-56.659-11.48zm58.029 11.76-12.232 53.04 56.659 11.49 12.233-53.04-56.66-11.49zm58.029 11.76-12.232 53.04 56.659 11.49 12.232-53.04-56.659-11.49zm58.029 11.77-12.232 53.04 56.66 11.48 12.232-53.04-56.66-11.48zm58.029 11.76-12.232 53.04 56.659 11.48 12.232-53.04-56.659-11.48zm58.029 11.76-12.232 53.04 56.66 11.48 12.23-53.04-56.658-11.48zm58.028 11.76-12.231 53.04 56.661 11.49 12.23-53.04-56.66-11.49zm58.03 11.76-12.23 53.04 56.66 11.49 12.23-53.04-56.66-11.49zm58.03 11.77-12.23 53.04 56.66 11.48 12.23-53.04-56.66-11.48zm58.03 11.76-12.23 53.04 56.66 11.48 12.23-53.04-56.66-11.48zm58.03 11.76-12.23 53.04 56.65 11.48 12.24-53.04-56.66-11.48zm58.03 11.76-12.24 53.04 56.66 11.49 12.24-53.04-56.66-11.49zm58.02 11.76-12.23 53.04 56.66 11.49 12.23-53.04-56.66-11.49zm58.03 11.76-12.23 53.05 56.66 11.48 12.23-53.04-56.66-11.49zm58.03 11.77-12.23 53.04 56.66 11.48 12.23-53.04-56.66-11.48zm58.03 11.76-12.23 53.04 56.66 11.48 12.23-53.04-56.66-11.48zm58.03 11.76-12.23 53.04 56.66 11.49 12.23-53.05-56.66-11.48zm58.03 11.76-12.23 53.04 56.66 11.49 12.23-53.04-56.66-11.49zm58.03 11.76-12.23 53.05 56.66 11.48 12.23-53.04-56.66-11.49zm58.03 11.77-12.23 53.04 56.66 11.48 12.23-53.04-56.66-11.48zm58.03 11.76-12.24 53.04 56.66 11.48 12.24-53.04-56.66-11.48zm58.03 11.76-12.24 53.04 56.66 11.48 12.24-53.04-56.66-11.48zm58.02 11.76-12.23 53.04 56.66 11.49 12.23-53.04-56.66-11.49zm58.03 11.76-12.23 53.04 56.66 11.49 12.23-53.04-56.66-11.49zm58.03 11.77-12.23 53.04 56.66 11.48 12.23-53.04-56.66-11.48zm58.03 11.76-12.23 53.04 56.66 11.48 12.23-53.04-56.66-11.48zm58.03 11.76-12.23 53.04 56.66 11.48 12.23-53.04-56.66-11.48zm58.03 11.76-12.23 53.04 56.66 11.49 12.23-53.04-56.66-11.49zm44.11 65.89-56.66-11.49-12.23 53.04 56.66 11.49 12.23-53.04zm-12.54 54.4-56.66-11.48-12.24 53.04 56.66 11.48 12.24-53.04zm-12.55 54.4-56.66-11.48-12.23 53.04 56.66 11.48 12.23-53.04zm-12.55 54.4-56.66-11.48-12.23 53.04 56.66 11.48 12.23-53.04zm-70.26 41.28 12.23-53.04-56.65-11.48-12.24 53.04 56.66 11.48zm-58.03-11.76 12.24-53.04-56.66-11.48-12.24 53.04 56.66 11.48zm-58.02-11.76 12.23-53.04-56.66-11.49-12.23 53.04 56.66 11.49zm-58.03-11.76 12.23-53.04-56.66-11.49-12.23 53.04 56.66 11.49zm-58.03-11.76 12.23-53.05-56.66-11.48-12.23 53.04 56.66 11.49zm-58.03-11.77 12.23-53.04-56.66-11.48-12.23 53.04 56.66 11.48zm-58.03-11.76 12.23-53.04-56.66-11.48-12.23 53.04 56.66 11.48zm-58.03-11.76 12.23-53.04-56.66-11.49-12.23 53.05 56.66 11.48zm-58.03-11.76 12.24-53.04-56.66-11.49-12.24 53.04 56.66 11.49zm-58.03-11.76 12.24-53.04-56.66-11.49-12.24 53.04 56.66 11.49zm-58.03-11.77 12.24-53.04-56.66-11.48-12.24 53.04 56.66 11.48zm-58.02-11.76 12.23-53.04-56.66-11.48-12.23 53.04 56.66 11.48zm-58.03-11.76 12.23-53.04-56.66-11.48-12.23 53.04 56.66 11.48zm-58.03-11.76 12.23-53.04-56.66-11.49-12.23 53.04 56.66 11.49zm-58.03-11.76 12.23-53.04-56.66-11.49-12.23 53.04 56.66 11.49zm-58.03-11.77 12.23-53.04-56.66-11.48-12.23 53.04 56.66 11.48zm-58.03-11.76 12.23-53.04-56.66-11.48-12.23 53.04 56.66 11.48zm-58.03-11.76 12.23-53.04-56.66-11.48-12.23 53.04 56.66 11.48zm-58.03-11.76 12.23-53.04-56.66-11.49-12.23 53.04 56.66 11.49zm-58.03-11.76 12.24-53.04-56.66-11.49-12.24 53.04 56.66 11.49zm-58.03-11.76 12.24-53.05-56.663-11.48-12.232 53.04 56.655 11.49zm-58.025-11.77 12.233-53.04-56.66-11.48-12.232 53.04 56.659 11.48zm-58.029-11.76 12.232-53.04-56.659-11.48-12.232 53.04 56.659 11.48zm-58.028-11.76L842.93 1351l-56.66-11.49-12.233 53.05 56.661 11.48zm-58.03-11.76 12.232-53.04-56.659-11.49-12.232 53.04 56.659 11.49zm-58.029-11.76 12.232-53.04-56.659-11.49-12.232 53.04 56.659 11.49zm-58.029-11.77 12.232-53.04-56.659-11.48-12.233 53.04 56.66 11.48zm-58.029-11.76 12.232-53.04-56.659-11.48-12.232 53.04 56.659 11.48zm-58.029-11.76 12.232-53.04-56.66-11.49-12.232 53.05 56.66 11.48zm-58.029-11.76 12.232-53.04-56.66-11.49-12.232 53.04 56.66 11.49zm-44.114-65.89 56.66 11.49 12.232-53.04-56.659-11.49-12.233 53.04zm12.546-54.4 56.66 11.48 12.232-53.04-56.659-11.48-12.233 53.04zm12.547-54.4 56.659 11.48 12.232-53.04-56.659-11.48-12.232 53.04zm70.26-41.28-12.232 53.04 56.66 11.48 12.232-53.04-56.66-11.48zm58.03 11.76-12.232 53.04 56.659 11.49 12.232-53.05-56.659-11.48zm58.029 11.76-12.232 53.04 56.659 11.49 12.232-53.04-56.659-11.49zm58.029 11.76-12.232 53.04 56.659 11.49 12.232-53.04-56.659-11.49zm58.029 11.77-12.232 53.04 56.659 11.48 12.232-53.04-56.659-11.48zm58.029 11.76-12.232 53.04 56.66 11.48 12.232-53.04-56.66-11.48zm58.029 11.76-12.232 53.04 56.659 11.48 12.232-53.04-56.659-11.48zm58.029 11.76-12.232 53.04 56.66 11.49 12.232-53.04-56.66-11.49zm58.029 11.76-12.232 53.04 56.657 11.49 12.23-53.04-56.655-11.49zm58.025 11.77-12.23 53.04 56.66 11.48 12.23-53.04-56.66-11.48zm58.03 11.76-12.23 53.04 56.66 11.48 12.23-53.04-56.66-11.48zm58.03 11.76-12.23 53.04 56.66 11.48 12.23-53.04-56.66-11.48zm58.03 11.76-12.23 53.04 56.66 11.49 12.23-53.04-56.66-11.49zm58.03 11.76-12.23 53.04 56.66 11.49 12.23-53.04-56.66-11.49zm58.03 11.76-12.23 53.05 56.66 11.48 12.23-53.04-56.66-11.49zm58.03 11.77-12.23 53.04 56.66 11.48 12.23-53.04-56.66-11.48zm58.03 11.76-12.23 53.04 56.65 11.48 12.24-53.04-56.66-11.48zm58.03 11.76-12.24 53.04 56.66 11.49 12.24-53.04-56.66-11.49zm58.03 11.76-12.24 53.04 56.66 11.49 12.23-53.04-56.65-11.49zm58.02 11.76-12.23 53.05 56.66 11.48 12.23-53.04-56.66-11.49zm58.03 11.77-12.23 53.04 56.66 11.48 12.23-53.04-56.66-11.48zm58.03 11.76-12.23 53.04 56.66 11.48 12.23-53.04-56.66-11.48zm58.03 11.76-12.23 53.04 56.66 11.49 12.23-53.05-56.66-11.48zm58.03 11.76-12.23 53.04 56.66 11.49 12.23-53.04-56.66-11.49zm58.03 11.76-12.23 53.04 56.66 11.49 12.23-53.04-56.66-11.49zm58.03 11.77-12.23 53.04 56.65 11.48 12.24-53.04-56.66-11.48zm58.03 11.76-12.24 53.04 56.66 11.48 12.24-53.04-56.66-11.48zm58.02 11.76-12.23 53.04 56.66 11.48 12.23-53.04-56.66-11.48zm58.03 11.76-12.23 53.04 56.66 11.49 12.23-53.04-56.66-11.49zm44.12 65.89-56.66-11.49-12.23 53.04 56.65 11.49 12.24-53.04zm-12.55 54.4-56.66-11.48-12.23 53.04 56.66 11.48 12.23-53.04zm-70.26 41.28 12.23-53.04-56.66-11.49-12.23 53.04 56.66 11.49zm-58.03-11.76 12.23-53.04-56.66-11.49-12.23 53.04 56.66 11.49zm-58.03-11.76 12.23-53.05-56.65-11.48-12.24 53.04 56.66 11.49zm-58.03-11.77 12.24-53.04-56.66-11.48-12.24 53.04 56.66 11.48zm-58.02-11.76 12.23-53.04-56.66-11.48-12.23 53.04 56.66 11.48zm-58.03-11.76 12.23-53.04-56.66-11.49-12.23 53.05 56.66 11.48zm-58.03-11.76 12.23-53.04-56.66-11.49-12.23 53.04 56.66 11.49zm-58.03-11.76 12.23-53.04-56.66-11.49-12.23 53.04 56.66 11.49zm-58.03-11.77 12.23-53.04-56.66-11.48-12.23 53.04 56.66 11.48zm-58.03-11.76 12.23-53.04-56.66-11.48-12.23 53.04 56.66 11.48zm-58.03-11.76 12.23-53.04-56.66-11.48-12.23 53.04 56.66 11.48zm-58.03-11.76 12.23-53.04-56.66-11.49-12.23 53.04 56.66 11.49zm-58.03-11.76 12.24-53.04-56.66-11.49-12.24 53.04 56.66 11.49zm-58.03-11.77 12.24-53.04-56.66-11.48-12.24 53.04 56.66 11.48zm-58.02-11.76 12.23-53.04-56.66-11.48-12.23 53.04 56.66 11.48zm-58.03-11.76 12.23-53.04-56.66-11.48-12.23 53.04 56.66 11.48zm-58.03-11.76 12.23-53.04-56.66-11.49-12.23 53.04 56.66 11.49zm-58.03-11.76 12.23-53.04-56.66-11.49-12.23 53.04 56.66 11.49zm-58.03-11.77 12.23-53.04-56.66-11.48-12.23 53.04 56.66 11.48zm-58.03-11.76 12.23-53.04-56.657-11.48-12.232 53.04 56.659 11.48zm-58.028-11.76 12.232-53.04-56.66-11.48-12.232 53.04 56.66 11.48zm-58.03-11.76 12.232-53.04-56.659-11.49-12.232 53.05 56.659 11.48zm-58.028-11.76 12.232-53.04-56.66-11.49-12.232 53.04 56.66 11.49zm-58.03-11.76 12.232-53.05-56.659-11.48-12.232 53.04 56.659 11.49zm-58.029-11.77 12.232-53.04-56.659-11.48-12.232 53.04 56.659 11.48zm-58.029-11.76 12.232-53.04-56.659-11.48-12.232 53.04 56.659 11.48zm-58.029-11.76 12.232-53.04-56.659-11.49-12.232 53.05 56.659 11.48zm-58.029-11.76 12.232-53.04-56.66-11.49-12.232 53.04 56.66 11.49zm-44.114-65.89 56.66 11.49 12.232-53.05-56.66-11.48-12.232 53.04zm70.262-41.28-12.232 53.04 56.659 11.49 12.232-53.04-56.659-11.49zm58.029 11.76-12.232 53.05 56.659 11.48 12.232-53.04-56.659-11.49zm58.029 11.77-12.232 53.04 56.659 11.48 12.233-53.04-56.66-11.48zm58.029 11.76-12.232 53.04 56.659 11.48 12.232-53.04-56.659-11.48zm58.029 11.76-12.232 53.04 56.66 11.49 12.232-53.05-56.66-11.48zm58.029 11.76-12.232 53.04 56.659 11.49 12.232-53.04-56.659-11.49zm58.029 11.76-12.232 53.04 56.66 11.49 12.232-53.04-56.66-11.49zm58.029 11.77-12.232 53.04 56.663 11.48 12.23-53.04-56.661-11.48zm58.031 11.76-12.23 53.04 56.66 11.48 12.23-53.04-56.66-11.48zm58.03 11.76-12.24 53.04 56.66 11.48 12.24-53.04-56.66-11.48zm58.03 11.76-12.24 53.04 56.66 11.49 12.24-53.04-56.66-11.49zm58.03 11.76-12.24 53.04 56.66 11.49 12.23-53.04-56.65-11.49zm58.02 11.77-12.23 53.04 56.66 11.48 12.23-53.04-56.66-11.48zm58.03 11.76-12.23 53.04 56.66 11.48 12.23-53.04-56.66-11.48zm58.03 11.76-12.23 53.04 56.66 11.48 12.23-53.04-56.66-11.48zm58.03 11.76-12.23 53.04 56.66 11.49 12.23-53.04-56.66-11.49zm58.03 11.76-12.23 53.04 56.66 11.49 12.23-53.04-56.66-11.49zm58.03 11.76-12.23 53.05 56.66 11.48 12.23-53.04-56.66-11.49zm58.03 11.77-12.23 53.04 56.66 11.48 12.23-53.04-56.66-11.48zm58.03 11.76-12.23 53.04 56.66 11.48 12.23-53.04-56.66-11.48zm58.03 11.76-12.24 53.04 56.66 11.49 12.24-53.05-56.66-11.48zm58.02 11.76-12.23 53.04 56.66 11.49 12.23-53.04-56.66-11.49zm58.03 11.76-12.23 53.04 56.66 11.49 12.23-53.04-56.66-11.49zm58.03 11.77-12.23 53.04 56.66 11.48 12.23-53.04-56.66-11.48zm58.03 11.76-12.23 53.04 56.66 11.48 12.23-53.04-56.66-11.48zm58.03 11.76-12.23 53.04 56.66 11.48 12.23-53.04-56.66-11.48zm58.03 11.76-12.23 53.04 56.66 11.49 12.23-53.04-56.66-11.49zM286.271 610.348l56.659 11.484 12.233-53.041-56.66-11.484-12.232 53.041zm12.546-54.403 56.66 11.484 12.231-53.04-56.659-11.484-12.232 53.04zm12.546-54.401 56.659 11.484 12.233-53.042-56.66-11.484-12.232 53.042zm12.546-54.404 56.66 11.485 12.232-53.04-56.66-11.485-12.232 53.04zm12.546-54.401 56.66 11.484 12.232-53.041-56.66-11.484-12.232 53.041zm12.546-54.403 56.66 11.485 12.232-53.041-56.66-11.484-12.232 53.04zm12.546-54.402 56.66 11.485 12.232-53.041-56.66-11.485-12.232 53.041zm12.546-54.402 56.66 11.484 12.232-53.04-56.66-11.484-12.232 53.04zm12.546-54.402 56.66 11.485 12.232-53.042-56.66-11.484-12.232 53.041zm12.546-54.403 56.66 11.484 12.232-53.04-56.66-11.484-12.232 53.04zm70.261-41.278-12.232 53.04 56.66 11.484 12.232-53.04-56.66-11.484zm58.029 11.762-12.232 53.04 56.659 11.484 12.232-53.04-56.659-11.484zm58.029 11.762-12.232 53.04 56.66 11.484 12.232-53.04-56.66-11.484zm58.029 11.762-12.232 53.04 56.66 11.484 12.232-53.04-56.66-11.484zm58.029 11.761-12.232 53.041 56.66 11.484 12.232-53.04-56.66-11.485zm58.029 11.762-12.232 53.04 56.66 11.485 12.232-53.04-56.66-11.485zm58.029 11.762-12.232 53.04 56.66 11.485 12.232-53.04-56.66-11.485zm58.029 11.762-12.232 53.04 56.66 11.485 12.232-53.04-56.66-11.485zm58.029 11.762-12.232 53.04 56.66 11.485 12.232-53.041-56.66-11.484zm58.029 11.762-12.231 53.04 56.654 11.484 12.24-53.04-56.663-11.484zm58.033 11.762-12.24 53.04 56.66 11.484 12.24-53.04-56.66-11.484zm58.03 11.762-12.24 53.04 56.66 11.484 12.23-53.04-56.65-11.484zm58.02 11.762-12.23 53.04 56.66 11.484 12.23-53.04-56.66-11.484zm58.03 11.762-12.23 53.04 56.66 11.484 12.23-53.04-56.66-11.484zm58.03 11.761-12.23 53.041 56.66 11.484 12.23-53.04-56.66-11.485zm58.03 11.762-12.23 53.04 56.66 11.485 12.23-53.04-56.66-11.485zm58.03 11.762-12.23 53.04 56.66 11.485 12.23-53.04-56.66-11.485zm58.03 11.762-12.23 53.04 56.66 11.485 12.23-53.04-56.66-11.485zm58.03 11.762-12.23 53.04 56.66 11.484 12.23-53.04-56.66-11.484zm58.03 11.762-12.23 53.04 56.66 11.484 12.23-53.04-56.66-11.484zm58.03 11.762-12.24 53.04 56.66 11.484 12.24-53.04-56.66-11.484zm58.03 11.762-12.24 53.04 56.66 11.484 12.24-53.04-56.66-11.484zm58.02 11.762-12.23 53.04 56.66 11.484 12.23-53.04-56.66-11.484zm58.03 11.761-12.23 53.041 56.66 11.484 12.23-53.04-56.66-11.485zm58.03 11.762-12.23 53.041 56.66 11.484 12.23-53.04-56.66-11.485zm58.03 11.762-12.23 53.04 56.66 11.485 12.23-53.04-56.66-11.485zm58.03 11.762-12.23 53.04 56.66 11.485 12.23-53.041-56.66-11.484zm58.03 11.762L2024 450.06l56.66 11.484 12.23-53.04-56.66-11.484zm58.03 11.762-12.23 53.04 56.66 11.484 12.23-53.04-56.66-11.484zm58.03 11.762-12.23 53.04 56.65 11.484 12.24-53.04-56.66-11.484zm58.03 11.762-12.24 53.04 56.66 11.484 12.24-53.04-56.66-11.484zm58.02 11.761-12.23 53.04 56.66 11.485 12.23-53.04-56.66-11.485zm58.03 11.762-12.23 53.04 56.66 11.485 12.23-53.04-56.66-11.485zm58.03 11.762-12.23 53.04 56.66 11.484 12.23-53.04-56.66-11.484zm58.03 11.762-12.23 53.04 56.66 11.484 12.23-53.04-56.66-11.484zm58.03 11.762-12.23 53.04 56.66 11.484 12.23-53.04-56.66-11.484zm58.03 11.762-12.23 53.04 56.66 11.484 12.23-53.04-56.66-11.484zm58.03 11.761-12.23 53.041 56.65 11.484 12.24-53.04-56.66-11.485zm58.03 11.762-12.24 53.04 56.66 11.485 12.24-53.04-56.66-11.485zm58.02 11.762-12.23 53.04 56.66 11.485 12.23-53.041-56.66-11.484zm44.12 65.886-56.66-11.484-12.23 53.041 56.66 11.485 12.23-53.042zm-12.55 54.403-56.66-11.484-12.23 53.04 56.66 11.484 12.23-53.04zm-12.54 54.402-56.66-11.485-12.24 53.042 56.66 11.484 12.24-53.041zm-12.55 54.402-56.66-11.484-12.23 53.04 56.66 11.485 12.23-53.041zm-12.55 54.402-56.66-11.484-12.23 53.041 56.66 11.484 12.23-53.041zm-12.54 54.403-56.66-11.485-12.23 53.041 56.66 11.484 12.23-53.04zm-12.55 54.401-56.66-11.484-12.23 53.042 56.66 11.484 12.23-53.042zm-12.54 54.403-56.66-11.484-12.24 53.04 56.66 11.48 12.24-53.036zm-12.55 54.406-56.66-11.49-12.23 53.04 56.66 11.49 12.23-53.04zm-70.26 41.28 12.23-53.05-56.66-11.48-12.23 53.04 56.66 11.49zm-58.03-11.77 12.23-53.04-56.66-11.48-12.23 53.04 56.66 11.48zm-58.03-11.76 12.23-53.04-56.66-11.484-12.23 53.044 56.66 11.48zm-58.03-11.76 12.23-53.041-56.65-11.485-12.24 53.046 56.66 11.48zm-58.03-11.76 12.24-53.043-56.66-11.485-12.24 53.038 56.66 11.49zm-58.02-11.76 12.23-53.045-56.66-11.484-12.23 53.039 56.66 11.49zm-58.03-11.77 12.23-53.037-56.66-11.484-12.23 53.041 56.66 11.48zm-58.03-11.758 12.23-53.041-56.66-11.484-12.23 53.041 56.66 11.484zm-58.03-11.761 12.23-53.042-56.66-11.484-12.23 53.041 56.66 11.485zm-58.03-11.762 12.23-53.042-56.66-11.484-12.23 53.041 56.66 11.485zm-58.03-11.762 12.23-53.041-56.66-11.485-12.23 53.042 56.66 11.484zm-58.03-11.762 12.23-53.041-56.65-11.485-12.24 53.042 56.66 11.484zm-58.03-11.762 12.24-53.041-56.66-11.484-12.24 53.041 56.66 11.484zm-58.02-11.762 12.23-53.041-56.66-11.484-12.23 53.041 56.66 11.484zm-58.03-11.761 12.23-53.042-56.66-11.484-12.23 53.041 56.66 11.485zm-58.03-11.762 12.23-53.042-56.66-11.484-12.23 53.041 56.66 11.485zm-58.03-11.762 12.23-53.042-56.66-11.484-12.23 53.041 56.66 11.485zm-58.03-11.762 12.23-53.041-56.66-11.485-12.23 53.041 56.66 11.485zm-58.03-11.762 12.23-53.041-56.66-11.485-12.23 53.042 56.66 11.484zm-58.03-11.762 12.23-53.041-56.66-11.485-12.23 53.042 56.66 11.484zm-58.03-11.762 12.23-53.041-56.66-11.484-12.23 53.041 56.66 11.484zm-58.03-11.762 12.24-53.041-56.66-11.484-12.24 53.041 56.66 11.484zm-58.03-11.762 12.24-53.041-56.66-11.484-12.24 53.041 56.66 11.484zm-58.03-11.762 12.24-53.041-56.66-11.484-12.23 53.041 56.65 11.484zm-58.02-11.761 12.23-53.042-56.66-11.484-12.23 53.041 56.66 11.485zm-58.03-11.762 12.23-53.042-56.66-11.484-12.23 53.041 56.66 11.485zm-58.03-11.762 12.23-53.041-56.66-11.485-12.23 53.041 56.66 11.485zm-58.03-11.762 12.23-53.041-56.658-11.485-12.233 53.042 56.661 11.484zm-58.03-11.762 12.232-53.041-56.66-11.485-12.232 53.042 56.66 11.484zm-58.03-11.762 12.233-53.041-56.66-11.484-12.232 53.041 56.659 11.484zm-58.028-11.762 12.232-53.041-56.66-11.484-12.232 53.041 56.66 11.484zm-58.029-11.762 12.232-53.041-56.66-11.484-12.232 53.041 56.66 11.484zm-58.029-11.762 12.232-53.041-56.66-11.484-12.232 53.041 56.66 11.484zm-58.029-11.762 12.232-53.041-56.66-11.484-12.232 53.041 56.66 11.484zm-58.03-11.761 12.232-53.042-56.659-11.484-12.232 53.041 56.659 11.485zm-58.028-11.762 12.232-53.042-56.66-11.484-12.232 53.041 56.66 11.485zm-58.03-11.762 12.233-53.041-56.66-11.485-12.232 53.041 56.659 11.485zm-58.029-11.762 12.232-53.041-56.659-11.485-12.232 53.042 56.659 11.484zm-58.028-11.762 12.232-53.041-56.66-11.485L344.3 622.11l56.66 11.484zm-44.114-65.887 56.66 11.484 12.232-53.04-56.66-11.484-12.232 53.04zm12.546-54.402 56.66 11.485 12.232-53.042-56.66-11.484-12.232 53.041zm12.546-54.403 56.66 11.485 12.232-53.04-56.66-11.485-12.232 53.04zm12.546-54.401 56.66 11.484 12.232-53.041-56.66-11.484-12.232 53.041zm12.546-54.403 56.66 11.485 12.232-53.041-56.66-11.484-12.232 53.04zm12.546-54.402 56.66 11.485 12.232-53.042-56.66-11.484-12.232 53.041zm12.546-54.402 56.66 11.484 12.232-53.04-56.66-11.485-12.232 53.041zm12.546-54.402 56.66 11.484 12.232-53.041-56.66-11.485-12.232 53.042zm70.261-41.28-12.232 53.042 56.659 11.484 12.233-53.041-56.66-11.485zm58.029 11.762-12.232 53.042 56.659 11.484 12.233-53.041-56.66-11.485zm58.029 11.762-12.232 53.042 56.66 11.484 12.232-53.042-56.66-11.484zm58.029 11.762-12.232 53.042 56.659 11.484 12.233-53.042-56.66-11.484zm58.029 11.762-12.232 53.041 56.66 11.485 12.232-53.042-56.66-11.484zm58.03 11.762-12.233 53.041 56.66 11.485 12.232-53.042-56.659-11.484zm58.028 11.762-12.232 53.041 56.66 11.485 12.232-53.042-56.66-11.484zm58.029 11.762L908.9 280.987l56.66 11.485 12.232-53.042-56.66-11.484zm58.03 11.762-12.233 53.041 56.661 11.484 12.23-53.041-56.658-11.484zm58.028 11.761-12.23 53.042 56.66 11.484 12.23-53.041-56.66-11.485zm58.03 11.762-12.23 53.042 56.66 11.484 12.23-53.041-56.66-11.485zm58.03 11.762-12.23 53.042 56.66 11.484 12.23-53.041-56.66-11.485zm58.03 11.762-12.23 53.042 56.65 11.484 12.24-53.042-56.66-11.484zm58.03 11.762-12.24 53.042 56.66 11.484 12.24-53.042-56.66-11.484zm58.03 11.762-12.24 53.042 56.66 11.484 12.24-53.042-56.66-11.484zm58.02 11.762-12.23 53.041 56.66 11.485 12.23-53.042-56.66-11.484zm58.03 11.762-12.23 53.041 56.66 11.485 12.23-53.042-56.66-11.484zm58.03 11.762-12.23 53.041 56.66 11.484 12.23-53.041-56.66-11.484zm58.03 11.761-12.23 53.042 56.66 11.484 12.23-53.041-56.66-11.485zm58.03 11.762-12.23 53.042 56.66 11.484 12.23-53.041-56.66-11.485zm58.03 11.762-12.23 53.042 56.66 11.484 12.23-53.041-56.66-11.485zm58.03 11.762-12.23 53.042 56.66 11.484 12.23-53.042-56.66-11.484zm58.03 11.762-12.23 53.042L1836 468.9l12.23-53.042-56.66-11.484zm58.03 11.762-12.24 53.042 56.66 11.484 12.24-53.042-56.66-11.484zm58.03 11.762-12.24 53.042 56.66 11.484 12.24-53.042-56.66-11.484zm58.03 11.762-12.24 53.041 56.66 11.485 12.23-53.042-56.65-11.484zm58.02 11.762-12.23 53.041 56.66 11.484 12.23-53.041-56.66-11.484zm58.03 11.761-12.23 53.042 56.66 11.484 12.23-53.041-56.66-11.485zm58.03 11.762-12.23 53.042 56.66 11.484 12.23-53.041-56.66-11.485zm58.03 11.762-12.23 53.042 56.66 11.484 12.23-53.042-56.66-11.484zm58.03 11.762-12.23 53.042 56.66 11.484 12.23-53.042-56.66-11.484zm58.03 11.762-12.24 53.041 56.66 11.485 12.24-53.042-56.66-11.484zm58.03 11.762-12.24 53.041 56.66 11.485 12.24-53.042-56.66-11.484zm58.03 11.761-12.24 53.042 56.66 11.484 12.23-53.041-56.65-11.485zm58.02 11.762-12.23 53.042 56.66 11.484 12.23-53.041-56.66-11.485zm58.03 11.762-12.23 53.042 56.66 11.484 12.23-53.042-56.66-11.484zm58.03 11.762-12.23 53.042 56.66 11.484 12.23-53.042-56.66-11.484zm58.03 11.762-12.23 53.041 56.66 11.485 12.23-53.042-56.66-11.484zm44.11 65.887-56.66-11.484-12.23 53.04 56.66 11.484 12.23-53.04zm-12.54 54.402-56.66-11.485-12.23 53.042 56.66 11.484 12.23-53.041zm-12.55 54.402-56.66-11.484-12.23 53.041 56.66 11.484 12.23-53.041zm-12.54 54.402-56.66-11.484-12.24 53.041 56.66 11.484 12.24-53.041zm-12.55 54.403-56.66-11.484-12.23 53.04 56.66 11.484 12.23-53.04zm-12.55 54.401-56.66-11.484-12.23 53.042 56.66 11.484 12.23-53.042zm-12.54 54.404-56.66-11.485-12.23 53.042 56.66 11.48 12.23-53.037zm-70.26 41.277 12.23-53.039-56.66-11.485-12.23 53.044 56.66 11.48zm-58.03-11.76 12.23-53.041-56.66-11.485-12.23 53.041 56.66 11.485zm-58.03-11.763 12.23-53.04-56.66-11.484-12.23 53.04 56.66 11.484zm-58.03-11.762 12.23-53.04-56.66-11.484-12.23 53.04 56.66 11.484zm-58.03-11.762 12.23-53.04-56.66-11.484-12.23 53.04 56.66 11.484zm-58.03-11.761 12.23-53.041-56.66-11.484-12.23 53.04 56.66 11.485zm-58.03-11.762 12.24-53.04-56.66-11.485-12.24 53.041 56.66 11.484zm-58.03-11.762 12.24-53.04-56.66-11.485-12.23 53.041 56.65 11.484zm-58.02-11.762 12.23-53.04-56.66-11.484-12.23 53.04 56.66 11.484zm-58.03-11.762 12.23-53.04L1993.89 844l-12.23 53.04 56.66 11.484zm-58.03-11.762 12.23-53.04-56.66-11.484-12.23 53.04 56.66 11.484zm-58.03-11.761 12.23-53.041-56.66-11.484-12.23 53.04 56.66 11.485zm-58.03-11.762 12.23-53.04-56.66-11.485-12.23 53.04 56.66 11.485zm-58.03-11.762 12.23-53.04-56.66-11.485-12.23 53.041 56.66 11.484zm-58.03-11.762 12.24-53.04-56.66-11.485-12.24 53.041 56.66 11.484zm-58.03-11.762 12.24-53.04-56.66-11.484-12.24 53.04 56.66 11.484zm-58.02-11.762 12.23-53.04-56.66-11.484-12.23 53.04 56.66 11.484zm-58.03-11.762 12.23-53.04-56.66-11.484-12.23 53.04 56.66 11.484zm-58.03-11.762 12.23-53.04-56.66-11.484-12.23 53.04 56.66 11.484zm-58.03-11.762 12.23-53.04-56.66-11.484-12.23 53.04 56.66 11.484zM1400 779.144l12.23-53.041-56.66-11.484-12.23 53.04 56.66 11.485zm-58.03-11.762 12.23-53.04-56.66-11.485-12.23 53.04 56.66 11.485zm-58.03-11.762 12.23-53.04-56.66-11.485-12.23 53.04 56.66 11.485zm-58.03-11.762 12.23-53.04-56.66-11.485-12.23 53.041 56.66 11.484zm-58.03-11.762 12.23-53.04-56.65-11.484-12.24 53.04 56.66 11.484zm-58.03-11.762 12.24-53.04-56.66-11.484-12.24 53.04 56.66 11.484zm-58.03-11.762 12.24-53.04-56.66-11.484-12.234 53.04 56.654 11.484zm-58.024-11.762 12.234-53.04-56.662-11.484-12.232 53.04 56.66 11.484zm-58.029-11.762 12.231-53.04-56.659-11.484-12.232 53.04 56.66 11.484zm-58.029-11.761 12.232-53.041-56.66-11.484-12.232 53.04 56.66 11.485zm-58.029-11.762 12.232-53.041L775.281 597l-12.232 53.04 56.66 11.485zm-58.029-11.762 12.232-53.04-56.66-11.485-12.232 53.04 56.66 11.485zm-58.029-11.762 12.232-53.04-56.66-11.485-12.232 53.04 56.66 11.485zm-58.03-11.762 12.232-53.04-56.659-11.485-12.232 53.041 56.659 11.484zm-58.028-11.762 12.232-53.04-56.66-11.484-12.232 53.04 56.66 11.484zm-58.03-11.762 12.232-53.04-56.659-11.484-12.232 53.04 56.659 11.484zm-58.029-11.762 12.232-53.04-56.659-11.484-12.232 53.04 56.659 11.484zm-44.113-65.886 56.659 11.485 12.232-53.042-56.659-11.484-12.232 53.041zm12.546-54.403 56.659 11.484 12.232-53.04-56.659-11.484-12.232 53.04zm12.546-54.401 56.659 11.484 12.232-53.041-56.659-11.485-12.232 53.042zm12.546-54.403 56.659 11.484 12.232-53.04-56.659-11.484-12.232 53.04zm12.546-54.402 56.659 11.484 12.232-53.041-56.659-11.484-12.232 53.041zm12.546-54.402 56.659 11.484 12.232-53.04-56.659-11.485-12.232 53.041zm70.261-41.279-12.232 53.04 56.66 11.485 12.232-53.04-56.66-11.485zm58.029 11.762-12.232 53.04 56.66 11.485 12.232-53.04-56.66-11.485zm58.029 11.762-12.232 53.04 56.66 11.485 12.231-53.041-56.659-11.484zm58.029 11.762-12.232 53.04 56.66 11.485 12.232-53.041-56.66-11.484zm58.029 11.762-12.232 53.04 56.66 11.484 12.232-53.04-56.66-11.484zm58.029 11.762-12.232 53.04 56.66 11.484 12.232-53.04-56.66-11.484zm58.029 11.762-12.232 53.04 56.66 11.484 12.232-53.04-56.66-11.484zm58.029 11.762-12.232 53.04 56.657 11.484 12.23-53.04-56.655-11.484zm58.025 11.761-12.23 53.041 56.66 11.484 12.23-53.04-56.66-11.485zm58.03 11.762-12.23 53.041 56.66 11.484 12.23-53.04-56.66-11.485zm58.03 11.762-12.23 53.04 56.66 11.485 12.23-53.04-56.66-11.485zm58.03 11.762-12.23 53.04 56.66 11.485 12.23-53.041-56.66-11.484zm58.03 11.762-12.23 53.04 56.66 11.485 12.23-53.041-56.66-11.484zm58.03 11.762-12.23 53.04 56.66 11.484 12.23-53.04-56.66-11.484zm58.03 11.762-12.23 53.04 56.66 11.484 12.23-53.04-56.66-11.484zm58.03 11.762-12.23 53.04 56.66 11.484 12.23-53.04-56.66-11.484zm58.03 11.762-12.24 53.04 56.66 11.484 12.24-53.04-56.66-11.484zm58.02 11.761-12.23 53.041 56.66 11.484 12.24-53.04-56.67-11.485zm58.03 11.762-12.23 53.041 56.66 11.484 12.23-53.04-56.66-11.485zm58.03 11.762-12.23 53.04 56.66 11.485 12.23-53.04-56.66-11.485zm58.03 11.762-12.23 53.04 56.66 11.485 12.23-53.04-56.66-11.485zm58.03 11.762-12.23 53.04 56.66 11.485 12.23-53.041-56.66-11.484zm58.03 11.762-12.23 53.04 56.66 11.485 12.23-53.041-56.66-11.484zm58.03 11.762-12.23 53.04 56.66 11.484 12.23-53.04-56.66-11.484zm58.03 11.762-12.23 53.04 56.66 11.484 12.23-53.04-56.66-11.484zm58.03 11.762-12.23 53.04 56.65 11.484 12.24-53.04-56.66-11.484zm58.03 11.761-12.24 53.041 56.66 11.484 12.24-53.04-56.66-11.485zm58.02 11.762-12.23 53.04 56.66 11.485 12.23-53.04-56.66-11.485zm58.03 11.762-12.23 53.04 56.66 11.485 12.23-53.041-56.66-11.484zm58.03 11.762-12.23 53.04 56.66 11.484 12.23-53.04-56.66-11.484zm58.03 11.762-12.23 53.04 56.66 11.484 12.23-53.04-56.66-11.484zm58.03 11.762-12.23 53.04 56.66 11.484 12.23-53.04-56.66-11.484zm58.03 11.762-12.23 53.04 56.66 11.484 12.23-53.04-56.66-11.484zm58.03 11.761-12.23 53.04 56.65 11.485 12.24-53.04-56.66-11.485zm58.03 11.762-12.24 53.04 56.66 11.485 12.24-53.04-56.66-11.485zm58.03 11.762-12.24 53.04 56.66 11.485 12.23-53.041-56.65-11.484zm44.11 65.886-56.66-11.484-12.23 53.041 56.66 11.484 12.23-53.041zm-12.55 54.403-56.66-11.485-12.23 53.041 56.66 11.484 12.23-53.04zm-12.54 54.401-56.66-11.484-12.23 53.041 56.65 11.485 12.24-53.042zm-12.55 54.403-56.66-11.484-12.23 53.04 56.66 11.484 12.23-53.04zm-12.55 54.402-56.65-11.485-12.24 53.042 56.66 11.484 12.23-53.041zm-70.26 41.279 12.24-53.041-56.66-11.485-12.24 53.042 56.66 11.484zm-58.03-11.761 12.24-53.042-56.66-11.484-12.23 53.041 56.65 11.485zm-58.02-11.762 12.23-53.042-56.66-11.484-12.23 53.041 56.66 11.485zm-58.03-11.762 12.23-53.042-56.66-11.484-12.23 53.042 56.66 11.484zm-58.03-11.762 12.23-53.042-56.66-11.484-12.23 53.042 56.66 11.484zm-58.03-11.762 12.23-53.042-56.66-11.484-12.23 53.042 56.66 11.484zm-58.03-11.762 12.23-53.041-56.66-11.485-12.23 53.042 56.66 11.484zm-58.03-11.761 12.23-53.042-56.66-11.484-12.23 53.041 56.66 11.485zm-58.03-11.762 12.24-53.042-56.66-11.484-12.24 53.041 56.66 11.485zm-58.03-11.762 12.24-53.042-56.66-11.484-12.23 53.042 56.65 11.484zm-58.02-11.762 12.23-53.042-56.66-11.484-12.23 53.042 56.66 11.484zm-58.03-11.762 12.23-53.041-56.66-11.485-12.23 53.042 56.66 11.484zm-58.03-11.762 12.23-53.041-56.66-11.485-12.23 53.042 56.66 11.484zm-58.03-11.762 12.23-53.041-56.66-11.485-12.23 53.042 56.66 11.484zm-58.03-11.762 12.23-53.041-56.66-11.485-12.23 53.042 56.66 11.484zm-58.03-11.761 12.23-53.042-56.66-11.484-12.23 53.041 56.66 11.485zm-58.03-11.762 12.23-53.042-56.66-11.484-12.23 53.041 56.66 11.485zm-58.03-11.762 12.24-53.042-56.67-11.484-12.23 53.041 56.66 11.485zm-58.03-11.762 12.24-53.042-56.66-11.484-12.24 53.042 56.66 11.484zm-58.02-11.762 12.23-53.042-56.66-11.484-12.23 53.042 56.66 11.484zm-58.03-11.762 12.23-53.042-56.66-11.484-12.23 53.042 56.66 11.484zm-58.03-11.762 12.23-53.041-56.66-11.485-12.23 53.042 56.66 11.484zm-58.03-11.762 12.23-53.041-56.66-11.485-12.23 53.042 56.66 11.484zm-58.03-11.762 12.23-53.041-56.66-11.485-12.23 53.042 56.66 11.484zm-58.03-11.761 12.23-53.042-56.66-11.485-12.23 53.042 56.66 11.485zm-58.03-11.762 12.23-53.042-56.66-11.484-12.23 53.041 56.66 11.485zm-58.03-11.762 12.23-53.042-56.656-11.484-12.232 53.041 56.658 11.485zm-58.028-11.762 12.233-53.042-56.66-11.484-12.232 53.041 56.659 11.485zm-58.028-11.762 12.232-53.042-56.66-11.484-12.232 53.042 56.66 11.484zm-58.029-11.762 12.232-53.042-56.66-11.484-12.232 53.042 56.66 11.484zm-58.03-11.762 12.233-53.042-56.66-11.484-12.232 53.042 56.659 11.484zm-58.028-11.762 12.232-53.041-56.66-11.485-12.232 53.042 56.66 11.484zm-58.03-11.762 12.233-53.041-56.66-11.485-12.232 53.042 56.659 11.484zm-58.028-11.762 12.232-53.041-56.66-11.485-12.232 53.042 56.66 11.484zm-58.03-11.761 12.233-53.042-56.66-11.485-12.232 53.042 56.659 11.485zm-44.113-65.888 56.66 11.484 12.231-53.04-56.659-11.484-12.232 53.04zm12.546-54.402 56.659 11.485 12.233-53.041-56.66-11.485-12.232 53.041zm12.546-54.402 56.66 11.484 12.232-53.04-56.66-11.485-12.232 53.041zm12.546-54.402 56.66 11.484 12.232-53.041-56.66-11.484-12.232 53.041zm70.261-41.279-12.232 53.041 56.66 11.484 12.232-53.041-56.66-11.484zm58.029 11.762-12.232 53.041 56.659 11.484 12.233-53.041-56.66-11.484zm58.029 11.762-12.232 53.041 56.66 11.484 12.232-53.041-56.66-11.484zm58.029 11.761-12.232 53.042 56.66 11.484 12.232-53.041-56.66-11.485zm58.029 11.762-12.232 53.042 56.66 11.484 12.232-53.041-56.66-11.485zm58.029 11.762-12.232 53.041 56.66 11.485 12.232-53.041-56.66-11.485zm58.029 11.762-12.232 53.041 56.66 11.485 12.233-53.042-56.661-11.484zm58.031 11.762-12.234 53.041 56.664 11.485 12.23-53.042-56.66-11.484zm58.03 11.762-12.23 53.041 56.65 11.484 12.24-53.041-56.66-11.484zm58.03 11.762-12.24 53.041 56.66 11.484 12.24-53.041-56.66-11.484zm58.03 11.762-12.24 53.041 56.66 11.484 12.23-53.041-56.65-11.484zm58.02 11.762-12.23 53.041 56.66 11.484 12.23-53.041-56.66-11.484zm58.03 11.762-12.23 53.041 56.66 11.484 12.23-53.041-56.66-11.484zm58.03 11.761-12.23 53.042 56.66 11.484 12.23-53.041-56.66-11.485zm58.03 11.762-12.23 53.042 56.66 11.484 12.23-53.041-56.66-11.485zm58.03 11.762-12.23 53.041 56.66 11.485 12.23-53.042-56.66-11.484zm58.03 11.762-12.23 53.041 56.66 11.485 12.23-53.042-56.66-11.484zm58.03 11.762-12.23 53.041 56.66 11.485 12.23-53.042-56.66-11.484zm58.03 11.762-12.23 53.041 56.66 11.484 12.23-53.041-56.66-11.484zm58.03 11.762-12.24 53.041 56.66 11.484 12.24-53.041-56.66-11.484zm58.03 11.762-12.24 53.041 56.66 11.484 12.24-53.041-56.66-11.484zm58.02 11.762-12.23 53.041 56.66 11.484 12.23-53.041-56.66-11.484zm58.03 11.762-12.23 53.041 56.66 11.484 12.23-53.041-56.66-11.484zm58.03 11.761-12.23 53.042 56.66 11.484 12.23-53.041-56.66-11.485zm58.03 11.762-12.23 53.041 56.66 11.485 12.23-53.042-56.66-11.484zm58.03 11.762-12.23 53.041 56.66 11.485 12.23-53.042-56.66-11.484zm58.03 11.762-12.23 53.041 56.66 11.484 12.23-53.041-56.66-11.484zm58.03 11.762-12.23 53.041 56.65 11.484 12.24-53.041-56.66-11.484zm58.03 11.762-12.24 53.041 56.66 11.484 12.24-53.041-56.66-11.484zm58.03 11.761-12.24 53.042 56.66 11.484 12.23-53.041-56.65-11.485zm58.02 11.762-12.23 53.041 56.66 11.485 12.23-53.041-56.66-11.485zm58.03 11.762-12.23 53.041 56.66 11.485 12.23-53.042-56.66-11.484zm58.03 11.762-12.23 53.041 56.66 11.484 12.23-53.041-56.66-11.484zm58.03 11.762-12.23 53.041 56.66 11.484 12.23-53.041-56.66-11.484zm44.11 65.887-56.66-11.485-12.23 53.041 56.66 11.484 12.23-53.04zm-12.54 54.402-56.66-11.485-12.23 53.041 56.66 11.485 12.23-53.041zm-12.55 54.402-56.66-11.484-12.23 53.04 56.66 11.484 12.23-53.04zm-70.26 41.278 12.23-53.04-56.66-11.484-12.23 53.04 56.66 11.484zm-58.03-11.761 12.23-53.041-56.66-11.484-12.23 53.04 56.66 11.485zm-58.03-11.762 12.24-53.04-56.66-11.485-12.24 53.04 56.66 11.485zm-58.03-11.762 12.24-53.04-56.66-11.485-12.23 53.041 56.65 11.484zm-58.02-11.762 12.23-53.04-56.66-11.484-12.23 53.04 56.66 11.484zm-58.03-11.762 12.23-53.04-56.66-11.484-12.23 53.04 56.66 11.484zm-58.03-11.762 12.23-53.04-56.66-11.484-12.23 53.04 56.66 11.484zm-58.03-11.761 12.23-53.041-56.66-11.484-12.23 53.04 56.66 11.485zm-58.03-11.762 12.23-53.04-56.66-11.485-12.23 53.04 56.66 11.485zm-58.03-11.762 12.23-53.04-56.66-11.484-12.23 53.04 56.66 11.484zm-58.03-11.762 12.24-53.04-56.66-11.484-12.24 53.04 56.66 11.484zm-58.03-11.762 12.24-53.04-56.66-11.484-12.24 53.04 56.66 11.484zm-58.02-11.762 12.23-53.04-56.66-11.484-12.23 53.04 56.66 11.484zm-58.03-11.762 12.23-53.04-56.66-11.484-12.23 53.04 56.66 11.484zm-58.03-11.762 12.23-53.04-56.66-11.484-12.23 53.04 56.66 11.484zm-58.03-11.761 12.23-53.041-56.66-11.484-12.23 53.04 56.66 11.485zm-58.03-11.762 12.23-53.04-56.66-11.485-12.23 53.04 56.66 11.485zm-58.03-11.762 12.23-53.04-56.66-11.485-12.23 53.04 56.66 11.485zm-58.03-11.762 12.23-53.04-56.66-11.485-12.23 53.041 56.66 11.484zm-58.03-11.762 12.23-53.04-56.66-11.484-12.23 53.04 56.66 11.484zm-58.03-11.762 12.24-53.04-56.66-11.484-12.24 53.04 56.66 11.484zM1251 635.053l12.24-53.04-56.66-11.484-12.24 53.04 56.66 11.484zm-58.03-11.762 12.24-53.04-56.66-11.484-12.23 53.04 56.65 11.484zm-58.02-11.762 12.23-53.04-56.66-11.484-12.23 53.04 56.66 11.484zm-58.03-11.762 12.23-53.04-56.66-11.484-12.23 53.04 56.66 11.484zm-58.03-11.761 12.23-53.04-56.66-11.485-12.232 53.04 56.662 11.485zm-58.031-11.762 12.232-53.04-56.66-11.485-12.232 53.04 56.66 11.485zm-58.029-11.762 12.232-53.04-56.66-11.485-12.232 53.04 56.66 11.485zm-58.029-11.762 12.232-53.04-56.66-11.485-12.232 53.041 56.66 11.484zm-58.029-11.762 12.232-53.04-56.66-11.484-12.232 53.04 56.66 11.484zm-58.029-11.762 12.232-53.04-56.66-11.484-12.232 53.04 56.66 11.484zm-58.029-11.762 12.231-53.04-56.659-11.484-12.232 53.04 56.66 11.484zm-58.029-11.762 12.232-53.04-56.66-11.484-12.232 53.04 56.66 11.484zm-44.114-65.886 56.66 11.485 12.232-53.041-56.66-11.485-12.232 53.041zm12.546-54.402 56.66 11.484 12.232-53.04-56.66-11.485-12.232 53.041zm70.261-41.279-12.232 53.041 56.66 11.484 12.231-53.04-56.659-11.485zm58.029 11.762-12.232 53.041 56.66 11.484 12.232-53.04-56.66-11.485zm58.029 11.762-12.232 53.041 56.66 11.484 12.232-53.041-56.66-11.484zm58.029 11.762-12.232 53.04 56.66 11.485 12.232-53.041-56.66-11.484zm58.029 11.762-12.232 53.04 56.66 11.485 12.232-53.041-56.66-11.484zm58.029 11.762-12.232 53.04 56.66 11.484 12.232-53.04-56.66-11.484zm58.029 11.762-12.232 53.04 56.66 11.485 12.23-53.041-56.658-11.484zm58.028 11.762-12.23 53.04 56.66 11.484 12.23-53.04-56.66-11.484zm58.03 11.761-12.23 53.041 56.66 11.484 12.23-53.04-56.66-11.485zm58.03 11.762-12.23 53.041 56.66 11.484 12.23-53.04-56.66-11.485zm58.03 11.762-12.23 53.041 56.66 11.484 12.23-53.04-56.66-11.485zm58.03 11.762-12.23 53.041 56.66 11.484 12.23-53.04-56.66-11.485zm58.03 11.762-12.24 53.04 56.66 11.485 12.24-53.041-56.66-11.484zm58.03 11.762-12.24 53.04 56.66 11.485 12.24-53.041-56.66-11.484zm58.02 11.762-12.23 53.04 56.66 11.484 12.23-53.04-56.66-11.484zm58.03 11.762-12.23 53.04 56.66 11.485 12.23-53.041-56.66-11.484zm58.03 11.762-12.23 53.04 56.66 11.484 12.23-53.04-56.66-11.484zm58.03 11.762-12.23 53.04 56.66 11.484 12.23-53.04-56.66-11.484zm58.03 11.761-12.23 53.041 56.66 11.484 12.23-53.04-56.66-11.485zm58.03 11.762-12.23 53.041 56.66 11.484 12.23-53.04-56.66-11.485zm58.03 11.762-12.23 53.041 56.66 11.484 12.23-53.04-56.66-11.485zm58.03 11.762-12.23 53.041 56.66 11.484 12.23-53.04-56.66-11.485zm58.03 11.762-12.24 53.04 56.66 11.485 12.24-53.041-56.66-11.484zm58.03 11.762-12.24 53.04 56.66 11.485 12.23-53.041-56.65-11.484zm58.02 11.762-12.23 53.04 56.66 11.484 12.23-53.04-56.66-11.484zm58.03 11.762-12.23 53.04 56.66 11.484 12.23-53.04-56.66-11.484zm58.03 11.761-12.23 53.041 56.66 11.484 12.23-53.04-56.66-11.485zm58.03 11.762-12.23 53.041 56.66 11.484 12.23-53.041-56.66-11.484zm58.03 11.762-12.23 53.04 56.66 11.485 12.23-53.041-56.66-11.484zm58.03 11.762-12.23 53.04 56.66 11.485 12.23-53.041-56.66-11.484zm58.03 11.762-12.24 53.04 56.66 11.484 12.24-53.04-56.66-11.484zm58.03 11.762-12.24 53.04 56.66 11.484 12.23-53.04-56.65-11.484zm44.11 65.886-56.66-11.485-12.23 53.042 56.66 11.484 12.23-53.041zm-70.26 41.279 12.23-53.041-56.66-11.484-12.23 53.041 56.66 11.484zm-58.03-11.762 12.23-53.041-56.66-11.484-12.23 53.041 56.66 11.484zm-58.03-11.762 12.23-53.041-56.66-11.484-12.23 53.041 56.66 11.484zm-58.03-11.761 12.23-53.042-56.66-11.484-12.23 53.041 56.66 11.485zm-58.03-11.762 12.24-53.042-56.66-11.484-12.24 53.041 56.66 11.485zm-58.03-11.762 12.24-53.041-56.66-11.485-12.24 53.042 56.66 11.484zm-58.02-11.762 12.23-53.041-56.66-11.485-12.23 53.042 56.66 11.484zm-58.03-11.762 12.23-53.041-56.66-11.484-12.23 53.041 56.66 11.484zm-58.03-11.762 12.23-53.041-56.66-11.484-12.23 53.041 56.66 11.484zm-58.03-11.761 12.23-53.042-56.66-11.484-12.23 53.041 56.66 11.485zm-58.03-11.762 12.23-53.042-56.66-11.484-12.23 53.041 56.66 11.485zm-58.03-11.762 12.23-53.041-56.66-11.485-12.23 53.041 56.66 11.485zm-58.03-11.762 12.23-53.041-56.66-11.485-12.23 53.041 56.66 11.485zm-58.03-11.762 12.24-53.041-56.66-11.485-12.24 53.042 56.66 11.484zm-58.03-11.762 12.24-53.041-56.66-11.484-12.24 53.041 56.66 11.484zm-58.02-11.762 12.23-53.041-56.66-11.485-12.24 53.042 56.67 11.484zm-58.03-11.762 12.23-53.041-56.66-11.484-12.23 53.041 56.66 11.484zm-58.03-11.762 12.23-53.041-56.66-11.484-12.23 53.041 56.66 11.484zm-58.03-11.762 12.23-53.041-56.66-11.484-12.23 53.041 56.66 11.484zm-58.03-11.761 12.23-53.042-56.66-11.484-12.23 53.041 56.66 11.485zm-58.03-11.762 12.23-53.042-56.66-11.484-12.23 53.041 56.66 11.485zm-58.03-11.762 12.23-53.041-56.66-11.485-12.23 53.041 56.66 11.485zm-58.03-11.762 12.23-53.041-56.66-11.485-12.23 53.042 56.66 11.484zm-58.03-11.762 12.23-53.041-56.65-11.484-12.24 53.041 56.66 11.484zm-58.03-11.762 12.24-53.041-56.664-11.485-12.232 53.042 56.656 11.484zm-58.025-11.762 12.232-53.041-56.66-11.484-12.232 53.041 56.66 11.484zm-58.029-11.762 12.232-53.041-56.66-11.484-12.232 53.041 56.66 11.484zm-58.029-11.762 12.232-53.041-56.66-11.484-12.232 53.041 56.66 11.484zm-58.029-11.762 12.232-53.041-56.66-11.484-12.232 53.041 56.66 11.484zm-58.029-11.761 12.232-53.042-56.66-11.484-12.232 53.041 56.66 11.485zm-58.03-11.762 12.233-53.042-56.66-11.484-12.232 53.041 56.659 11.485z" clip-rule="evenodd" opacity=".1"/><defs><linearGradient id="a" x1="-106.779" x2="152.243" y1="1791.54" y2="794.119" gradientUnits="userSpaceOnUse"><stop offset=".262" stop-color="#978FED" stop-opacity="0"/><stop offset="1" stop-color="#978FED"/><stop offset="1" stop-color="#978FED"/></linearGradient></defs></svg>